G04*
G04 #@! TF.GenerationSoftware,Altium Limited,Altium Designer,24.9.1 (31)*
G04*
G04 Layer_Physical_Order=4*
G04 Layer_Color=16711680*
%FSLAX44Y44*%
%MOMM*%
G71*
G04*
G04 #@! TF.SameCoordinates,E34D74D8-3647-4743-B869-721777AC5566*
G04*
G04*
G04 #@! TF.FilePolarity,Positive*
G04*
G01*
G75*
%ADD15C,0.2540*%
%ADD47C,0.6500*%
%ADD51C,0.6000*%
%ADD52C,1.5300*%
%ADD53C,1.2700*%
%ADD54C,0.1778*%
G36*
X1432908Y1154344D02*
X1436015Y1153057D01*
X1438811Y1151189D01*
X1440000Y1150000D01*
X1557929Y1032071D01*
Y1032071D01*
X1559610Y1030390D01*
X1562252Y1026436D01*
X1564072Y1022042D01*
X1565000Y1017378D01*
Y1015000D01*
Y625000D01*
X1398536Y458536D01*
X1397695Y457695D01*
X1395718Y456374D01*
X1393521Y455464D01*
X1391189Y455000D01*
X933019D01*
X928112Y455976D01*
X923490Y457891D01*
X919330Y460671D01*
X917561Y462439D01*
X856449Y523551D01*
X856604Y524131D01*
Y525869D01*
X856154Y527549D01*
X855285Y529055D01*
X854055Y530285D01*
X852549Y531154D01*
X850869Y531604D01*
X849131D01*
X848551Y531449D01*
X795000Y585000D01*
Y1009479D01*
Y1011981D01*
X795976Y1016888D01*
X797891Y1021510D01*
X800670Y1025670D01*
X802439Y1027439D01*
X930000Y1155000D01*
X1429610D01*
X1432908Y1154344D01*
D02*
G37*
%LPC*%
G36*
X1360869Y1146604D02*
X1359131D01*
X1357451Y1146154D01*
X1355945Y1145285D01*
X1354716Y1144055D01*
X1353846Y1142549D01*
X1353396Y1140869D01*
Y1139131D01*
X1353846Y1137451D01*
X1354716Y1135945D01*
X1355945Y1134715D01*
X1357451Y1133846D01*
X1359131Y1133396D01*
X1360869D01*
X1362549Y1133846D01*
X1364055Y1134715D01*
X1365284Y1135945D01*
X1366154Y1137451D01*
X1366604Y1139131D01*
Y1140869D01*
X1366154Y1142549D01*
X1365284Y1144055D01*
X1364055Y1145285D01*
X1362549Y1146154D01*
X1360869Y1146604D01*
D02*
G37*
G36*
X989527Y1116143D02*
X988857Y1115473D01*
X988857Y1114527D01*
X989527Y1113857D01*
X990473Y1113857D01*
X991143Y1114527D01*
X991143Y1115473D01*
X990473Y1116143D01*
X990473Y1116143D01*
X989527D01*
D02*
G37*
G36*
X1194527Y1086143D02*
X1193857Y1085473D01*
X1193857Y1084527D01*
X1194527Y1083857D01*
X1195473Y1083857D01*
X1196143Y1084527D01*
X1196143Y1085473D01*
X1195473Y1086143D01*
X1195473Y1086143D01*
X1194527D01*
D02*
G37*
G36*
X1540869Y1031604D02*
X1539131D01*
X1537451Y1031154D01*
X1535945Y1030285D01*
X1534716Y1029055D01*
X1533846Y1027549D01*
X1533396Y1025869D01*
Y1024131D01*
X1533846Y1022451D01*
X1534716Y1020945D01*
X1535945Y1019715D01*
X1537451Y1018846D01*
X1539131Y1018396D01*
X1540869D01*
X1542549Y1018846D01*
X1544055Y1019715D01*
X1545284Y1020945D01*
X1546154Y1022451D01*
X1546604Y1024131D01*
Y1025869D01*
X1546154Y1027549D01*
X1545284Y1029055D01*
X1544055Y1030285D01*
X1542549Y1031154D01*
X1540869Y1031604D01*
D02*
G37*
G36*
X809527Y1016143D02*
X808857Y1015473D01*
X808857Y1014527D01*
X809527Y1013857D01*
X810473Y1013857D01*
X811143Y1014527D01*
X811143Y1015473D01*
X810473Y1016143D01*
X810473Y1016143D01*
X809527D01*
D02*
G37*
G36*
X1080869Y1026604D02*
X1079131D01*
X1077451Y1026154D01*
X1075945Y1025285D01*
X1074715Y1024055D01*
X1073846Y1022549D01*
X1073396Y1020869D01*
Y1019131D01*
X1073846Y1017451D01*
X1074715Y1015945D01*
X1075945Y1014715D01*
X1077451Y1013846D01*
X1079131Y1013396D01*
X1080869D01*
X1082549Y1013846D01*
X1084055Y1014715D01*
X1085285Y1015945D01*
X1086154Y1017451D01*
X1086604Y1019131D01*
Y1020869D01*
X1086154Y1022549D01*
X1085285Y1024055D01*
X1084055Y1025285D01*
X1082549Y1026154D01*
X1080869Y1026604D01*
D02*
G37*
G36*
X1354527Y1011143D02*
X1353857Y1010473D01*
X1353857Y1009527D01*
X1354527Y1008857D01*
X1355473Y1008857D01*
X1356143Y1009527D01*
X1356143Y1010473D01*
X1355473Y1011143D01*
X1355473Y1011143D01*
X1354527D01*
D02*
G37*
G36*
X1195869Y1021604D02*
X1194131D01*
X1192451Y1021154D01*
X1190945Y1020285D01*
X1189715Y1019055D01*
X1188846Y1017549D01*
X1188396Y1015869D01*
Y1014131D01*
X1188846Y1012451D01*
X1189715Y1010945D01*
X1190945Y1009715D01*
X1192451Y1008846D01*
X1194131Y1008396D01*
X1195869D01*
X1197549Y1008846D01*
X1199055Y1009715D01*
X1200285Y1010945D01*
X1201154Y1012451D01*
X1201604Y1014131D01*
Y1015869D01*
X1201154Y1017549D01*
X1200285Y1019055D01*
X1199055Y1020285D01*
X1197549Y1021154D01*
X1195869Y1021604D01*
D02*
G37*
G36*
X1096041Y933704D02*
X1093959D01*
X1091949Y933165D01*
X1090147Y932125D01*
X1088675Y930653D01*
X1087635Y928851D01*
X1087096Y926841D01*
Y924759D01*
X1087635Y922749D01*
X1088675Y920947D01*
X1090147Y919475D01*
X1091949Y918435D01*
X1093959Y917896D01*
X1096041D01*
X1098051Y918435D01*
X1099853Y919475D01*
X1101325Y920947D01*
X1102365Y922749D01*
X1102904Y924759D01*
Y926841D01*
X1102365Y928851D01*
X1101325Y930653D01*
X1099853Y932125D01*
X1098051Y933165D01*
X1096041Y933704D01*
D02*
G37*
G36*
Y908304D02*
X1093959D01*
X1091949Y907765D01*
X1090147Y906725D01*
X1088675Y905253D01*
X1087635Y903451D01*
X1087096Y901441D01*
Y899359D01*
X1087635Y897349D01*
X1088675Y895547D01*
X1090147Y894075D01*
X1091949Y893035D01*
X1093959Y892496D01*
X1096041D01*
X1098051Y893035D01*
X1099853Y894075D01*
X1101325Y895547D01*
X1102365Y897349D01*
X1102904Y899359D01*
Y901441D01*
X1102365Y903451D01*
X1101325Y905253D01*
X1099853Y906725D01*
X1098051Y907765D01*
X1096041Y908304D01*
D02*
G37*
G36*
Y882904D02*
X1093959D01*
X1091949Y882365D01*
X1090147Y881325D01*
X1088675Y879853D01*
X1087635Y878051D01*
X1087096Y876041D01*
Y873959D01*
X1087635Y871949D01*
X1088675Y870147D01*
X1090147Y868675D01*
X1091949Y867635D01*
X1093959Y867096D01*
X1096041D01*
X1098051Y867635D01*
X1099853Y868675D01*
X1101325Y870147D01*
X1102365Y871949D01*
X1102904Y873959D01*
Y876041D01*
X1102365Y878051D01*
X1101325Y879853D01*
X1099853Y881325D01*
X1098051Y882365D01*
X1096041Y882904D01*
D02*
G37*
G36*
X1095869Y846604D02*
X1094131D01*
X1092451Y846154D01*
X1090945Y845285D01*
X1089715Y844055D01*
X1088846Y842549D01*
X1088396Y840869D01*
Y839131D01*
X1088846Y837451D01*
X1089715Y835945D01*
X1090945Y834715D01*
X1092451Y833846D01*
X1094131Y833396D01*
X1095869D01*
X1097549Y833846D01*
X1099055Y834715D01*
X1100285Y835945D01*
X1101154Y837451D01*
X1101604Y839131D01*
Y840869D01*
X1101154Y842549D01*
X1100285Y844055D01*
X1099055Y845285D01*
X1097549Y846154D01*
X1095869Y846604D01*
D02*
G37*
G36*
X1509527Y816143D02*
X1508857Y815473D01*
X1508857Y814527D01*
X1509527Y813857D01*
X1510473Y813857D01*
X1511143Y814527D01*
X1511143Y815473D01*
X1510473Y816143D01*
X1510473Y816143D01*
X1509527D01*
D02*
G37*
G36*
X1124527Y811143D02*
X1123857Y810473D01*
X1123857Y809527D01*
X1124527Y808857D01*
X1125473Y808857D01*
X1126143Y809527D01*
X1126143Y810473D01*
X1125473Y811143D01*
X1125473Y811143D01*
X1124527D01*
D02*
G37*
G36*
X866747Y804604D02*
X865353D01*
X864065Y804071D01*
X863080Y803085D01*
X862546Y801797D01*
Y800403D01*
X863080Y799115D01*
X864065Y798129D01*
X865353Y797596D01*
X866747D01*
X868035Y798129D01*
X869021Y799115D01*
X869554Y800403D01*
Y801797D01*
X869021Y803085D01*
X868035Y804071D01*
X866747Y804604D01*
D02*
G37*
G36*
X1289527Y721143D02*
X1288857Y720473D01*
X1288857Y719527D01*
X1289527Y718857D01*
X1290473Y718857D01*
X1291143Y719527D01*
X1291143Y720473D01*
X1290473Y721143D01*
X1290473Y721143D01*
X1289527D01*
D02*
G37*
G36*
X1504527Y711143D02*
X1503857Y710473D01*
X1503857Y709527D01*
X1504527Y708857D01*
X1505473Y708857D01*
X1506143Y709527D01*
X1506143Y710473D01*
X1505473Y711143D01*
X1505473Y711143D01*
X1504527D01*
D02*
G37*
G36*
X1394527D02*
X1393857Y710473D01*
X1393857Y709527D01*
X1394527Y708857D01*
X1395473Y708857D01*
X1396143Y709527D01*
X1396143Y710473D01*
X1395473Y711143D01*
X1395473Y711143D01*
X1394527D01*
D02*
G37*
G36*
X1344527D02*
X1343857Y710473D01*
X1343857Y709527D01*
X1344527Y708857D01*
X1345473Y708857D01*
X1346143Y709527D01*
X1346143Y710473D01*
X1345473Y711143D01*
X1345473Y711143D01*
X1344527D01*
D02*
G37*
G36*
X900869Y706604D02*
X899131D01*
X897451Y706154D01*
X895945Y705285D01*
X894715Y704055D01*
X893846Y702549D01*
X893396Y700869D01*
Y699131D01*
X893846Y697451D01*
X894715Y695945D01*
X895945Y694715D01*
X897451Y693846D01*
X899131Y693396D01*
X900869D01*
X902549Y693846D01*
X904055Y694715D01*
X905285Y695945D01*
X906154Y697451D01*
X906604Y699131D01*
Y700869D01*
X906154Y702549D01*
X905285Y704055D01*
X904055Y705285D01*
X902549Y706154D01*
X900869Y706604D01*
D02*
G37*
G36*
X1264527Y686143D02*
X1263857Y685473D01*
X1263857Y684527D01*
X1264527Y683857D01*
X1265473Y683857D01*
X1266143Y684527D01*
X1266143Y685473D01*
X1265473Y686143D01*
X1265473Y686143D01*
X1264527D01*
D02*
G37*
G36*
X799527Y671143D02*
X798857Y670473D01*
X798857Y669527D01*
X799527Y668857D01*
X800473Y668857D01*
X801143Y669527D01*
X801143Y670473D01*
X800473Y671143D01*
X800473Y671143D01*
X799527D01*
D02*
G37*
G36*
X1400869Y666604D02*
X1399131D01*
X1397451Y666154D01*
X1395945Y665285D01*
X1394716Y664055D01*
X1393846Y662549D01*
X1393396Y660869D01*
Y659131D01*
X1393846Y657451D01*
X1394716Y655945D01*
X1395945Y654715D01*
X1397451Y653846D01*
X1399131Y653396D01*
X1400869D01*
X1402549Y653846D01*
X1404055Y654715D01*
X1405284Y655945D01*
X1406154Y657451D01*
X1406604Y659131D01*
Y660869D01*
X1406154Y662549D01*
X1405284Y664055D01*
X1404055Y665285D01*
X1402549Y666154D01*
X1400869Y666604D01*
D02*
G37*
G36*
X867121Y633897D02*
X867088Y633883D01*
X865955Y633414D01*
X865955D01*
X865941Y633400D01*
X865125Y632584D01*
X863276Y630734D01*
X862549Y631154D01*
X860869Y631604D01*
X859131D01*
X857451Y631154D01*
X855945Y630285D01*
X854715Y629055D01*
X853846Y627549D01*
X853396Y625869D01*
Y624131D01*
X853846Y622451D01*
X854715Y620945D01*
X855945Y619715D01*
X857451Y618846D01*
X859131Y618396D01*
X860869D01*
X862549Y618846D01*
X864055Y619715D01*
X865285Y620945D01*
X866154Y622451D01*
X866395Y623350D01*
X999317D01*
X1009312Y613355D01*
X1008846Y612549D01*
X1008396Y610869D01*
Y609131D01*
X1008846Y607451D01*
X1009715Y605945D01*
X1010945Y604715D01*
X1012451Y603846D01*
X1013350Y603605D01*
Y523433D01*
X1011384Y521466D01*
X1010870Y521604D01*
X1009131D01*
X1007451Y521154D01*
X1005945Y520285D01*
X1004715Y519055D01*
X1003846Y517549D01*
X1003396Y515869D01*
Y514131D01*
X1003846Y512451D01*
X1004715Y510945D01*
X1005945Y509715D01*
X1007451Y508846D01*
X1009131Y508396D01*
X1010870D01*
X1012549Y508846D01*
X1014055Y509715D01*
X1015285Y510945D01*
X1016154Y512451D01*
X1016604Y514131D01*
Y515869D01*
X1016154Y517549D01*
X1015285Y519055D01*
X1014462Y519878D01*
X1016166Y521583D01*
X1016650Y522749D01*
Y603605D01*
X1017549Y603846D01*
X1019055Y604715D01*
X1020285Y605945D01*
X1021154Y607451D01*
X1021604Y609131D01*
Y610869D01*
X1021154Y612549D01*
X1020285Y614055D01*
X1019055Y615285D01*
X1017549Y616154D01*
X1015869Y616604D01*
X1014131D01*
X1012451Y616154D01*
X1011645Y615688D01*
X1001166Y626166D01*
X1000000Y626650D01*
X867449D01*
X866397Y629190D01*
X868274Y631067D01*
X868274Y631067D01*
X868288Y631081D01*
Y631081D01*
X868771Y632247D01*
X868771Y632247D01*
X868391Y633165D01*
D01*
X868288Y633414D01*
X868039Y633516D01*
D01*
X867121Y633897D01*
X867121Y633897D01*
D02*
G37*
G36*
X1144527Y616143D02*
X1143857Y615474D01*
X1143857Y614526D01*
X1144527Y613857D01*
X1145473Y613857D01*
X1146143Y614526D01*
X1146143Y615473D01*
X1145473Y616143D01*
X1145473Y616143D01*
X1144527D01*
D02*
G37*
G36*
X1204527Y611143D02*
X1203857Y610474D01*
X1203857Y609526D01*
X1204527Y608857D01*
X1205473Y608857D01*
X1206143Y609526D01*
X1206143Y610473D01*
X1205473Y611143D01*
X1205473Y611143D01*
X1204527D01*
D02*
G37*
G36*
X1194527D02*
X1193857Y610474D01*
X1193857Y609526D01*
X1194527Y608857D01*
X1195473Y608857D01*
X1196143Y609526D01*
X1196143Y610473D01*
X1195473Y611143D01*
X1195473Y611143D01*
X1194527D01*
D02*
G37*
G36*
X1065869Y1086604D02*
X1064131D01*
X1062451Y1086154D01*
X1060945Y1085285D01*
X1059715Y1084055D01*
X1058846Y1082549D01*
X1058396Y1080869D01*
Y1079131D01*
X1058846Y1077451D01*
X1059312Y1076645D01*
X969317Y986650D01*
X896395D01*
X896154Y987549D01*
X895285Y989055D01*
X894055Y990285D01*
X892549Y991154D01*
X890869Y991604D01*
X889131D01*
X887451Y991154D01*
X885945Y990285D01*
X884715Y989055D01*
X883846Y987549D01*
X883396Y985870D01*
Y984131D01*
X883846Y982451D01*
X884715Y980945D01*
X885945Y979715D01*
X887451Y978846D01*
X889131Y978396D01*
X890869D01*
X891384Y978534D01*
X893350Y976568D01*
Y861395D01*
X892451Y861154D01*
X890945Y860285D01*
X889715Y859055D01*
X888846Y857549D01*
X888605Y856650D01*
X876027D01*
X874861Y856167D01*
X874470Y855776D01*
X871200D01*
X869554Y858203D01*
Y859597D01*
X869021Y860885D01*
X868035Y861870D01*
X866747Y862404D01*
X865035Y863261D01*
X864483Y864751D01*
Y865277D01*
X864033Y866956D01*
X863163Y868462D01*
X861934Y869692D01*
X860428Y870561D01*
X858748Y871011D01*
X857009D01*
X855330Y870561D01*
X853824Y869692D01*
X852594Y868462D01*
X851725Y866956D01*
X851275Y865277D01*
Y863538D01*
X851725Y861858D01*
X852594Y860352D01*
X853824Y859123D01*
X855330Y858253D01*
X857009Y857803D01*
X857737D01*
Y855614D01*
X858220Y854447D01*
X859708Y852960D01*
X860874Y852476D01*
X875153D01*
X876320Y852960D01*
X876711Y853350D01*
X888605D01*
X888846Y852451D01*
X889715Y850945D01*
X890945Y849715D01*
X892451Y848846D01*
X894130Y848396D01*
X895869D01*
X897549Y848846D01*
X898355Y849312D01*
X923834Y823834D01*
X925000Y823350D01*
X938605D01*
X938846Y822451D01*
X939715Y820945D01*
X940945Y819715D01*
X939997Y817330D01*
X918355Y795688D01*
X917549Y796154D01*
X915869Y796604D01*
X914131D01*
X912451Y796154D01*
X910945Y795285D01*
X909715Y794055D01*
X908846Y792549D01*
X908396Y790869D01*
Y789131D01*
X908846Y787451D01*
X909715Y785945D01*
X910945Y784715D01*
X912451Y783846D01*
X914131Y783396D01*
X915869D01*
X917549Y783846D01*
X919055Y784715D01*
X920285Y785945D01*
X921154Y787451D01*
X921604Y789131D01*
Y790869D01*
X921154Y792549D01*
X920688Y793355D01*
X944222Y816890D01*
X944706Y818056D01*
Y818396D01*
X945869D01*
X947549Y818846D01*
X949055Y819715D01*
X950285Y820945D01*
X951154Y822451D01*
X951604Y824131D01*
Y825869D01*
X951154Y827549D01*
X950285Y829055D01*
X949055Y830285D01*
X947549Y831154D01*
X945869Y831604D01*
X944130D01*
X942451Y831154D01*
X940945Y830285D01*
X939715Y829055D01*
X938846Y827549D01*
X938605Y826650D01*
X925683D01*
X900688Y851645D01*
X901154Y852451D01*
X901604Y854131D01*
Y855870D01*
X901154Y857549D01*
X900285Y859055D01*
X899055Y860285D01*
X897549Y861154D01*
X896650Y861395D01*
Y977251D01*
X896166Y978417D01*
X894462Y980122D01*
X895285Y980945D01*
X896154Y982451D01*
X896395Y983350D01*
X970000D01*
X971166Y983834D01*
X1061645Y1074312D01*
X1062451Y1073846D01*
X1064131Y1073396D01*
X1065869D01*
X1067549Y1073846D01*
X1068355Y1074312D01*
X1093834Y1048834D01*
X1095000Y1048350D01*
X1263605D01*
X1263846Y1047451D01*
X1264715Y1045945D01*
X1265945Y1044715D01*
X1267451Y1043846D01*
X1268350Y1043605D01*
Y925683D01*
X1248355Y905688D01*
X1247549Y906154D01*
X1245869Y906604D01*
X1244131D01*
X1242451Y906154D01*
X1240945Y905285D01*
X1239715Y904055D01*
X1238846Y902549D01*
X1238396Y900869D01*
Y899131D01*
X1238846Y897451D01*
X1239715Y895945D01*
X1240945Y894715D01*
X1242451Y893846D01*
X1243350Y893605D01*
Y800000D01*
X1243834Y798834D01*
X1288671Y753996D01*
X1287699Y751650D01*
X1211395D01*
X1211154Y752549D01*
X1210285Y754055D01*
X1209055Y755285D01*
X1207549Y756154D01*
X1205869Y756604D01*
X1204131D01*
X1202451Y756154D01*
X1200945Y755285D01*
X1200122Y754462D01*
X1198417Y756166D01*
X1197251Y756650D01*
X1146395D01*
X1146154Y757549D01*
X1145285Y759055D01*
X1144055Y760285D01*
X1142549Y761154D01*
X1140869Y761604D01*
X1139131D01*
X1137451Y761154D01*
X1135945Y760285D01*
X1134715Y759055D01*
X1133846Y757549D01*
X1133605Y756650D01*
X1106037D01*
X1095688Y766999D01*
X1096154Y767805D01*
X1096604Y769484D01*
Y771223D01*
X1096154Y772903D01*
X1095285Y774409D01*
X1094055Y775639D01*
X1092549Y776508D01*
X1090869Y776958D01*
X1089131D01*
X1087451Y776508D01*
X1085945Y775639D01*
X1084715Y774409D01*
X1083846Y772903D01*
X1083396Y771223D01*
Y769484D01*
X1083846Y767805D01*
X1084715Y766299D01*
X1085945Y765070D01*
X1087451Y764200D01*
X1088228Y763992D01*
Y761362D01*
X1087451Y761154D01*
X1085945Y760285D01*
X1084715Y759055D01*
X1083846Y757549D01*
X1083396Y755869D01*
Y754130D01*
X1083846Y752451D01*
X1084715Y750945D01*
X1085945Y749715D01*
X1087451Y748846D01*
X1089131Y748396D01*
X1090869D01*
X1092549Y748846D01*
X1094055Y749715D01*
X1095285Y750945D01*
X1096154Y752451D01*
X1096604Y754130D01*
Y755869D01*
X1096154Y757549D01*
X1095285Y759055D01*
X1094055Y760285D01*
X1093481Y760616D01*
X1093542Y763390D01*
X1094312Y763709D01*
X1104188Y753834D01*
X1105354Y753350D01*
X1133605D01*
X1133846Y752451D01*
X1134715Y750945D01*
X1135945Y749715D01*
X1137451Y748846D01*
X1138350Y748605D01*
Y730683D01*
X1133355Y725688D01*
X1132549Y726154D01*
X1130869Y726604D01*
X1129131D01*
X1127451Y726154D01*
X1125945Y725285D01*
X1124715Y724055D01*
X1123846Y722549D01*
X1123396Y720869D01*
Y719131D01*
X1123846Y717451D01*
X1124715Y715945D01*
X1125945Y714715D01*
X1127451Y713846D01*
X1129131Y713396D01*
X1130869D01*
X1132549Y713846D01*
X1134055Y714715D01*
X1135285Y715945D01*
X1136154Y717451D01*
X1136604Y719131D01*
Y720869D01*
X1136154Y722549D01*
X1135688Y723355D01*
X1141166Y728834D01*
X1141650Y730000D01*
Y748605D01*
X1142549Y748846D01*
X1144055Y749715D01*
X1145285Y750945D01*
X1146154Y752451D01*
X1146395Y753350D01*
X1196568D01*
X1198534Y751384D01*
X1198396Y750869D01*
Y749131D01*
X1198846Y747451D01*
X1199715Y745945D01*
X1200945Y744715D01*
X1202451Y743846D01*
X1203350Y743605D01*
Y680450D01*
X1203834Y679283D01*
X1208529Y674588D01*
X1207477Y672048D01*
X1173129D01*
X1172870Y673011D01*
X1172001Y674517D01*
X1170771Y675746D01*
X1169266Y676616D01*
X1167586Y677066D01*
X1165847D01*
X1164167Y676616D01*
X1162662Y675746D01*
X1161432Y674517D01*
X1160563Y673011D01*
X1160113Y671331D01*
Y669592D01*
X1160563Y667913D01*
X1161432Y666407D01*
X1162662Y665177D01*
X1164167Y664308D01*
X1165847Y663858D01*
X1167586D01*
X1169266Y664308D01*
X1170771Y665177D01*
X1172001Y666407D01*
X1172870Y667913D01*
X1173094Y668749D01*
X1208703D01*
X1208961Y667786D01*
X1209830Y666280D01*
X1211060Y665050D01*
X1212566Y664181D01*
X1214245Y663731D01*
X1215984D01*
X1217664Y664181D01*
X1219170Y665050D01*
X1220399Y666280D01*
X1221269Y667786D01*
X1221719Y669465D01*
Y671204D01*
X1221269Y672884D01*
X1220399Y674390D01*
X1219170Y675619D01*
X1217664Y676489D01*
X1215984Y676939D01*
X1214245D01*
X1212566Y676489D01*
X1211759Y676023D01*
X1206650Y681133D01*
Y743605D01*
X1207549Y743846D01*
X1209055Y744715D01*
X1210285Y745945D01*
X1211154Y747451D01*
X1211395Y748350D01*
X1294317D01*
X1297326Y745341D01*
X1297246Y745147D01*
Y743853D01*
X1297741Y742657D01*
X1298657Y741741D01*
X1298850Y741661D01*
Y738339D01*
X1298657Y738259D01*
X1297741Y737343D01*
X1297246Y736147D01*
Y734853D01*
X1297741Y733657D01*
X1298657Y732741D01*
X1299853Y732246D01*
X1301147D01*
X1302343Y732741D01*
X1303259Y733657D01*
X1303339Y733850D01*
X1306661D01*
X1306741Y733657D01*
X1307657Y732741D01*
X1308853Y732246D01*
X1310147D01*
X1311343Y732741D01*
X1312259Y733657D01*
X1312754Y734853D01*
Y736147D01*
X1312259Y737343D01*
X1311343Y738259D01*
X1311150Y738339D01*
Y741661D01*
X1311343Y741741D01*
X1312259Y742657D01*
X1312754Y743853D01*
Y745147D01*
X1312259Y746343D01*
X1311343Y747259D01*
X1310147Y747754D01*
X1308853D01*
X1307657Y747259D01*
X1306741Y746343D01*
X1306246Y745147D01*
X1303754D01*
X1303259Y746343D01*
X1302343Y747259D01*
X1301147Y747754D01*
X1299853D01*
X1299659Y747674D01*
X1296166Y751166D01*
X1246650Y800683D01*
Y893605D01*
X1247549Y893846D01*
X1249055Y894715D01*
X1250285Y895945D01*
X1251154Y897451D01*
X1251604Y899131D01*
Y900869D01*
X1251154Y902549D01*
X1250688Y903355D01*
X1271166Y923834D01*
X1271650Y925000D01*
Y1042426D01*
X1274190Y1043478D01*
X1353834Y963834D01*
X1355000Y963350D01*
X1418605D01*
X1418846Y962451D01*
X1419716Y960945D01*
X1420945Y959715D01*
X1422451Y958846D01*
X1424131Y958396D01*
X1425869D01*
X1427549Y958846D01*
X1428356Y959312D01*
X1438350Y949317D01*
Y851395D01*
X1437451Y851154D01*
X1435945Y850285D01*
X1434716Y849055D01*
X1433846Y847549D01*
X1433396Y845870D01*
Y844131D01*
X1433846Y842451D01*
X1434716Y840945D01*
X1435945Y839715D01*
X1437451Y838846D01*
X1439131Y838396D01*
X1440869D01*
X1442549Y838846D01*
X1443356Y839312D01*
X1473350Y809317D01*
Y641395D01*
X1472451Y641154D01*
X1470945Y640285D01*
X1469716Y639055D01*
X1468846Y637549D01*
X1468396Y635869D01*
Y634131D01*
X1468846Y632451D01*
X1469312Y631645D01*
X1419317Y581650D01*
X1331395D01*
X1331154Y582549D01*
X1330284Y584055D01*
X1329055Y585285D01*
X1327549Y586154D01*
X1325869Y586604D01*
X1324131D01*
X1322451Y586154D01*
X1321644Y585688D01*
X1276166Y631166D01*
X1275000Y631650D01*
X1236395D01*
X1236154Y632549D01*
X1235285Y634055D01*
X1234055Y635285D01*
X1232549Y636154D01*
X1230869Y636604D01*
X1229131D01*
X1227451Y636154D01*
X1225945Y635285D01*
X1224715Y634055D01*
X1223846Y632549D01*
X1223396Y630869D01*
Y629131D01*
X1223846Y627451D01*
X1224715Y625945D01*
X1225945Y624715D01*
X1227451Y623846D01*
X1229131Y623396D01*
X1230763D01*
Y608815D01*
X1230763Y606277D01*
X1229527Y606143D01*
X1228857Y605474D01*
X1228857Y604526D01*
X1229527Y603857D01*
X1230763Y601437D01*
Y513096D01*
X1213355Y495688D01*
X1212549Y496154D01*
X1210869Y496604D01*
X1209131D01*
X1207451Y496154D01*
X1205945Y495285D01*
X1204715Y494055D01*
X1203846Y492549D01*
X1203396Y490869D01*
Y489131D01*
X1203846Y487451D01*
X1204715Y485945D01*
X1205945Y484715D01*
X1207451Y483846D01*
X1209131Y483396D01*
X1210869D01*
X1212549Y483846D01*
X1214055Y484715D01*
X1215285Y485945D01*
X1216154Y487451D01*
X1216604Y489131D01*
Y490869D01*
X1216154Y492549D01*
X1215688Y493355D01*
X1233579Y511247D01*
X1234063Y512413D01*
Y624723D01*
X1235285Y625945D01*
X1236154Y627451D01*
X1236395Y628350D01*
X1274317D01*
X1319312Y583355D01*
X1318846Y582549D01*
X1318396Y580869D01*
Y579131D01*
X1318846Y577451D01*
X1319716Y575945D01*
X1320945Y574715D01*
X1322451Y573846D01*
X1324131Y573396D01*
X1325869D01*
X1327549Y573846D01*
X1329055Y574715D01*
X1330284Y575945D01*
X1331154Y577451D01*
X1331395Y578350D01*
X1420000D01*
X1421166Y578834D01*
X1471644Y629312D01*
X1472451Y628846D01*
X1474131Y628396D01*
X1475869D01*
X1477549Y628846D01*
X1479055Y629715D01*
X1480284Y630945D01*
X1481154Y632451D01*
X1481604Y634131D01*
Y635869D01*
X1481154Y637549D01*
X1480284Y639055D01*
X1479055Y640285D01*
X1477549Y641154D01*
X1476650Y641395D01*
Y810000D01*
X1476166Y811166D01*
X1445688Y841645D01*
X1446154Y842451D01*
X1446604Y844131D01*
Y845870D01*
X1446154Y847549D01*
X1445284Y849055D01*
X1444055Y850285D01*
X1442549Y851154D01*
X1441650Y851395D01*
Y950000D01*
X1441166Y951166D01*
X1430688Y961645D01*
X1431154Y962451D01*
X1431604Y964131D01*
Y965869D01*
X1431154Y967549D01*
X1430284Y969055D01*
X1429055Y970285D01*
X1427549Y971154D01*
X1425869Y971604D01*
X1424131D01*
X1422451Y971154D01*
X1420945Y970285D01*
X1419716Y969055D01*
X1418846Y967549D01*
X1418605Y966650D01*
X1355683D01*
X1275688Y1046645D01*
X1276154Y1047451D01*
X1276604Y1049131D01*
Y1050870D01*
X1276154Y1052549D01*
X1275285Y1054055D01*
X1274055Y1055285D01*
X1272549Y1056154D01*
X1270869Y1056604D01*
X1269131D01*
X1267451Y1056154D01*
X1265945Y1055285D01*
X1264715Y1054055D01*
X1263846Y1052549D01*
X1263605Y1051650D01*
X1095683D01*
X1070688Y1076645D01*
X1071154Y1077451D01*
X1071604Y1079131D01*
Y1080869D01*
X1071154Y1082549D01*
X1070285Y1084055D01*
X1069055Y1085285D01*
X1067549Y1086154D01*
X1065869Y1086604D01*
D02*
G37*
G36*
X1090869Y586604D02*
X1089131D01*
X1087451Y586154D01*
X1085945Y585285D01*
X1084715Y584055D01*
X1083846Y582549D01*
X1083396Y580869D01*
Y579131D01*
X1083846Y577451D01*
X1084715Y575945D01*
X1085945Y574715D01*
X1087451Y573846D01*
X1089131Y573396D01*
X1090869D01*
X1092549Y573846D01*
X1094055Y574715D01*
X1095285Y575945D01*
X1096154Y577451D01*
X1096604Y579131D01*
Y580869D01*
X1096154Y582549D01*
X1095285Y584055D01*
X1094055Y585285D01*
X1092549Y586154D01*
X1090869Y586604D01*
D02*
G37*
G36*
X934527Y546143D02*
X933857Y545474D01*
X933857Y544526D01*
X934527Y543857D01*
X935473Y543857D01*
X936143Y544526D01*
X936143Y545474D01*
X935473Y546143D01*
X935473Y546143D01*
X934527D01*
D02*
G37*
G36*
X1139527Y526143D02*
X1138857Y525474D01*
X1138857Y524526D01*
X1139527Y523857D01*
X1140473Y523857D01*
X1141143Y524526D01*
X1141143Y525473D01*
X1140473Y526143D01*
X1140473Y526143D01*
X1139527D01*
D02*
G37*
G36*
X1289527Y511143D02*
X1288857Y510474D01*
X1288857Y509526D01*
X1289527Y508857D01*
X1290473Y508857D01*
X1291143Y509526D01*
X1291143Y510474D01*
X1290473Y511143D01*
X1290473Y511143D01*
X1289527D01*
D02*
G37*
%LPD*%
D15*
X915000Y790000D02*
X943056Y818056D01*
Y823056D01*
X945000Y825000D01*
X895000Y855000D02*
X925000Y825000D01*
X945000D01*
X857879Y864407D02*
X859386Y862900D01*
Y855614D02*
Y862900D01*
Y855614D02*
X860874Y854126D01*
X875153D01*
X876027Y855000D02*
X895000D01*
X875153Y854126D02*
X876027Y855000D01*
X890000Y982251D02*
Y985000D01*
X895000Y855000D02*
Y977251D01*
X890000Y982251D02*
X895000Y977251D01*
X1105354Y755000D02*
X1140000D01*
X1090000Y770354D02*
X1105354Y755000D01*
X1215051Y670398D02*
X1215115Y670335D01*
X1205000Y680450D02*
X1215051Y670398D01*
X1205000Y680450D02*
Y750000D01*
X1166717Y670462D02*
X1166780Y670398D01*
X1215051D01*
X1197251Y755000D02*
X1202251Y750000D01*
X1205000D01*
X1140000Y755000D02*
X1197251D01*
X1140000Y730000D02*
Y755000D01*
X1130000Y720000D02*
X1140000Y730000D01*
X1215000Y670000D02*
Y670220D01*
X1215115Y670335D01*
X1245000Y800000D02*
X1295000Y750000D01*
X1300500Y744500D01*
X1205000Y750000D02*
X1295000D01*
X1300500Y735500D02*
Y744500D01*
Y735500D02*
X1309500D01*
Y744500D01*
X1245000Y800000D02*
Y900000D01*
X1270000Y925000D02*
Y1050000D01*
X1245000Y900000D02*
X1270000Y925000D01*
X970000Y985000D02*
X1065000Y1080000D01*
X890000Y985000D02*
X970000D01*
X1065000Y1080000D02*
X1095000Y1050000D01*
X1270000D01*
X1355000Y965000D02*
X1425000D01*
X1270000Y1050000D02*
X1355000Y965000D01*
X1440000Y845000D02*
Y950000D01*
X1425000Y965000D02*
X1440000Y950000D01*
Y845000D02*
X1475000Y810000D01*
Y635000D02*
Y810000D01*
X1420000Y580000D02*
X1475000Y635000D01*
X1325000Y580000D02*
X1420000D01*
X1230000Y630000D02*
X1275000D01*
X1325000Y580000D01*
X1232413Y512413D02*
Y624838D01*
X1210000Y490000D02*
X1232413Y512413D01*
X1010000Y515000D02*
Y517749D01*
X1015000Y522749D02*
Y610000D01*
X1010000Y517749D02*
X1015000Y522749D01*
X1000000Y625000D02*
X1015000Y610000D01*
X860000Y625000D02*
X1000000D01*
X860000Y625126D02*
X867121Y632247D01*
X860000Y625000D02*
Y625126D01*
D47*
X866050Y801100D02*
D03*
Y858900D02*
D03*
D51*
X1309500Y735500D02*
D03*
X1300500D02*
D03*
X1309500Y744500D02*
D03*
X1300500D02*
D03*
D52*
X1095000Y925800D02*
D03*
Y900400D02*
D03*
Y875000D02*
D03*
D53*
X1400000Y660000D02*
D03*
X1090000Y580000D02*
D03*
X900000Y700000D02*
D03*
X1195000Y1015000D02*
D03*
X1080000Y1020000D02*
D03*
X855000Y1095000D02*
D03*
X850000Y525000D02*
D03*
X1490000D02*
D03*
X1540000Y1025000D02*
D03*
X1360000Y1140000D02*
D03*
X1090000Y755000D02*
D03*
X915000Y790000D02*
D03*
X857879Y864407D02*
D03*
X1090000Y770354D02*
D03*
X1215115Y670335D02*
D03*
X1166717Y670462D02*
D03*
X1130000Y720000D02*
D03*
X1140000Y755000D02*
D03*
X1205000Y750000D02*
D03*
X945000Y825000D02*
D03*
X1230000Y630000D02*
D03*
X1210000Y490000D02*
D03*
X895000Y855000D02*
D03*
X1010000Y515000D02*
D03*
X1015000Y610000D02*
D03*
X860000Y625000D02*
D03*
X1325000Y580000D02*
D03*
X1475000Y635000D02*
D03*
X1440000Y845000D02*
D03*
X1425000Y965000D02*
D03*
X1270000Y1050000D02*
D03*
X1065000Y1080000D02*
D03*
X890000Y985000D02*
D03*
X1245000Y900000D02*
D03*
X1095000Y840000D02*
D03*
D54*
X1230000Y605000D02*
D03*
X1290000Y510000D02*
D03*
X800000Y670000D02*
D03*
X935000Y545000D02*
D03*
X1140000Y525000D02*
D03*
X1505000Y710000D02*
D03*
X1510000Y815000D02*
D03*
X1355000Y1010000D02*
D03*
X1195000Y1085000D02*
D03*
X990000Y1115000D02*
D03*
X810000Y1015000D02*
D03*
X1395000Y710000D02*
D03*
X1345000D02*
D03*
X1265000Y685000D02*
D03*
X1290000Y720000D02*
D03*
X1205000Y610000D02*
D03*
X1195000D02*
D03*
X1145000Y615000D02*
D03*
X1125000Y810000D02*
D03*
M02*
