G04*
G04 #@! TF.GenerationSoftware,Altium Limited,Altium Designer,24.9.1 (31)*
G04*
G04 Layer_Physical_Order=1*
G04 Layer_Color=255*
%FSLAX44Y44*%
%MOMM*%
G71*
G04*
G04 #@! TF.SameCoordinates,E34D74D8-3647-4743-B869-721777AC5566*
G04*
G04*
G04 #@! TF.FilePolarity,Positive*
G04*
G01*
G75*
%ADD15C,0.2540*%
%ADD16R,1.1500X0.3000*%
%ADD17R,1.1500X0.6000*%
%ADD18R,2.0000X2.1800*%
%ADD19R,1.5000X0.9000*%
%ADD20R,0.9000X1.5000*%
%ADD21R,0.9000X0.7500*%
%ADD22R,1.0621X1.1350*%
%ADD23R,1.1350X1.0621*%
%ADD24R,0.5000X0.6000*%
%ADD25O,0.6000X2.0500*%
%ADD26O,2.0500X0.6000*%
%ADD27R,0.7500X0.9000*%
%ADD28R,0.8621X0.7350*%
%ADD29R,0.7350X0.8621*%
%ADD30R,0.5200X0.5200*%
%ADD31R,1.8582X1.3561*%
G04:AMPARAMS|DCode=32|XSize=1.3383mm|YSize=0.578mm|CornerRadius=0.289mm|HoleSize=0mm|Usage=FLASHONLY|Rotation=180.000|XOffset=0mm|YOffset=0mm|HoleType=Round|Shape=RoundedRectangle|*
%AMROUNDEDRECTD32*
21,1,1.3383,0.0000,0,0,180.0*
21,1,0.7603,0.5780,0,0,180.0*
1,1,0.5780,-0.3802,0.0000*
1,1,0.5780,0.3802,0.0000*
1,1,0.5780,0.3802,0.0000*
1,1,0.5780,-0.3802,0.0000*
%
%ADD32ROUNDEDRECTD32*%
%ADD33R,1.3383X0.5780*%
%ADD34R,1.2000X1.2000*%
%ADD35R,1.2000X1.4500*%
%ADD36R,1.0500X0.6500*%
%ADD37R,1.6000X1.6000*%
%ADD38C,0.2520*%
%ADD39R,1.3561X1.8582*%
%ADD40R,2.7000X1.2000*%
%ADD47C,0.6500*%
%ADD51C,0.6000*%
%ADD52C,1.5300*%
%ADD53C,1.2700*%
%ADD54C,0.1778*%
G36*
X1288100Y733900D02*
X1293600Y733900D01*
X1293878D01*
X1294393Y733687D01*
X1294787Y733293D01*
X1295000Y732778D01*
Y732500D01*
Y732222D01*
X1294787Y731707D01*
X1294393Y731313D01*
X1293878Y731100D01*
X1293600D01*
D01*
X1288100D01*
Y733900D01*
D02*
G37*
G36*
Y738900D02*
X1293600D01*
X1293878D01*
X1294393Y738687D01*
X1294787Y738293D01*
X1295000Y737778D01*
Y737500D01*
Y737222D01*
X1294787Y736707D01*
X1294393Y736313D01*
X1293878Y736100D01*
X1293600D01*
D01*
X1288100D01*
Y738900D01*
D02*
G37*
G36*
X1296100Y723100D02*
Y728600D01*
Y728878D01*
X1296313Y729393D01*
X1296707Y729787D01*
X1297222Y730000D01*
X1297500D01*
X1297778D01*
X1298293Y729787D01*
X1298687Y729393D01*
X1298900Y728878D01*
Y728600D01*
X1298900D01*
Y723100D01*
X1296100D01*
D02*
G37*
G36*
X1301100D02*
Y728600D01*
Y728878D01*
X1301313Y729393D01*
X1301707Y729787D01*
X1302222Y730000D01*
X1302500D01*
X1302778D01*
X1303293Y729787D01*
X1303687Y729393D01*
X1303900Y728878D01*
Y728600D01*
D01*
Y723100D01*
X1301100D01*
D02*
G37*
G36*
X1288100Y743900D02*
X1293600D01*
X1293878D01*
X1294393Y743687D01*
X1294787Y743293D01*
X1295000Y742778D01*
Y742500D01*
Y742222D01*
X1294787Y741707D01*
X1294393Y741313D01*
X1293878Y741100D01*
X1293600D01*
D01*
X1288100D01*
Y743900D01*
D02*
G37*
G36*
Y748900D02*
X1293600D01*
X1293878D01*
X1294393Y748687D01*
X1294787Y748293D01*
X1295000Y747778D01*
Y747500D01*
Y747222D01*
X1294787Y746707D01*
X1294393Y746313D01*
X1293878Y746100D01*
X1293600D01*
Y746100D01*
X1288100D01*
Y748900D01*
D02*
G37*
G36*
X1298900Y756900D02*
X1298900Y751400D01*
Y751122D01*
X1298687Y750607D01*
X1298293Y750213D01*
X1297778Y750000D01*
X1297500D01*
X1297222D01*
X1296707Y750213D01*
X1296313Y750607D01*
X1296100Y751122D01*
Y751400D01*
D01*
Y756900D01*
X1298900D01*
D02*
G37*
G36*
X1303900D02*
Y751400D01*
Y751122D01*
X1303687Y750607D01*
X1303293Y750213D01*
X1302778Y750000D01*
X1302500D01*
X1302222D01*
X1301707Y750213D01*
X1301313Y750607D01*
X1301100Y751122D01*
Y751400D01*
D01*
Y756900D01*
X1303900D01*
D02*
G37*
G36*
X1306100Y723100D02*
Y728600D01*
Y728878D01*
X1306313Y729393D01*
X1306707Y729787D01*
X1307222Y730000D01*
X1307500D01*
X1307778D01*
X1308293Y729787D01*
X1308687Y729393D01*
X1308900Y728878D01*
Y728600D01*
D01*
Y723100D01*
X1306100D01*
D02*
G37*
G36*
X1311100D02*
X1311100Y728600D01*
Y728878D01*
X1311313Y729393D01*
X1311707Y729787D01*
X1312222Y730000D01*
X1312500D01*
X1312778D01*
X1313293Y729787D01*
X1313687Y729393D01*
X1313900Y728878D01*
Y728600D01*
D01*
Y723100D01*
X1311100D01*
D02*
G37*
G36*
X1321900Y731100D02*
X1316400D01*
X1316122D01*
X1315607Y731313D01*
X1315213Y731707D01*
X1315000Y732222D01*
Y732500D01*
Y732778D01*
X1315213Y733293D01*
X1315607Y733687D01*
X1316122Y733900D01*
X1316400D01*
Y733900D01*
X1321900D01*
Y731100D01*
D02*
G37*
G36*
Y736100D02*
X1316400D01*
X1316122D01*
X1315607Y736313D01*
X1315213Y736707D01*
X1315000Y737222D01*
Y737500D01*
Y737778D01*
X1315213Y738293D01*
X1315607Y738687D01*
X1316122Y738900D01*
X1316400D01*
D01*
X1321900D01*
Y736100D01*
D02*
G37*
G36*
X1308900Y756900D02*
Y751400D01*
Y751122D01*
X1308687Y750607D01*
X1308293Y750213D01*
X1307778Y750000D01*
X1307500D01*
X1307222D01*
X1306707Y750213D01*
X1306313Y750607D01*
X1306100Y751122D01*
Y751400D01*
D01*
Y756900D01*
X1308900D01*
D02*
G37*
G36*
X1313900D02*
Y751400D01*
Y751122D01*
X1313687Y750607D01*
X1313293Y750213D01*
X1312778Y750000D01*
X1312500D01*
X1312222D01*
X1311707Y750213D01*
X1311313Y750607D01*
X1311100Y751122D01*
Y751400D01*
X1311100D01*
Y756900D01*
X1313900D01*
D02*
G37*
G36*
X1321900Y741100D02*
X1316400D01*
X1316122D01*
X1315607Y741313D01*
X1315213Y741707D01*
X1315000Y742222D01*
Y742500D01*
Y742778D01*
X1315213Y743293D01*
X1315607Y743687D01*
X1316122Y743900D01*
X1316400D01*
D01*
X1321900D01*
Y741100D01*
D02*
G37*
G36*
Y746100D02*
X1316400Y746100D01*
X1316122D01*
X1315607Y746313D01*
X1315213Y746707D01*
X1315000Y747222D01*
Y747500D01*
Y747778D01*
X1315213Y748293D01*
X1315607Y748687D01*
X1316122Y748900D01*
X1316400D01*
D01*
X1321900D01*
Y746100D01*
D02*
G37*
D15*
X1330000Y745000D02*
Y773512D01*
X1276488Y775000D02*
X1328512D01*
X1330000Y773512D01*
X1275000Y751488D02*
Y773512D01*
X1276488Y775000D01*
X1271488Y785000D02*
X1361366D01*
X1270000Y783512D02*
X1271488Y785000D01*
X1361366D02*
X1362854Y783512D01*
Y711577D02*
Y783512D01*
X1270000Y755000D02*
Y783512D01*
X1092875Y757875D02*
X1107750Y743000D01*
X1082126Y751739D02*
X1086739Y747126D01*
X1055000Y780000D02*
X1082126Y752874D01*
X1087874Y747126D02*
X1100000Y735000D01*
X1082126Y751739D02*
Y752874D01*
X1086739Y747126D02*
X1087874D01*
X915000Y790000D02*
Y793846D01*
X871431Y860270D02*
X875070D01*
X857879Y864407D02*
X858612Y863674D01*
X868027D01*
X871431Y860270D01*
X875070D02*
X876800Y862000D01*
X878530Y855730D02*
X884594D01*
X933865Y905000D01*
X876800Y854000D02*
X878530Y855730D01*
X933865Y905000D02*
X952676D01*
X911154Y854365D02*
Y855000D01*
Y854365D02*
X917151Y848367D01*
X923908Y843988D02*
Y846092D01*
X922420Y842500D02*
X923908Y843988D01*
X876800Y842500D02*
X922420D01*
X917151Y848367D02*
X921633D01*
X923908Y846092D01*
X908018Y812500D02*
X914365Y806154D01*
X915000D01*
X876800Y812500D02*
X908018D01*
X1009512Y705000D02*
X1011000Y703512D01*
X970000Y705000D02*
X1009512D01*
X882768Y802524D02*
X883181D01*
X881280Y804012D02*
Y804270D01*
X883181Y802524D02*
X884074Y801631D01*
X876800Y806000D02*
X879550D01*
X881280Y804012D02*
X882768Y802524D01*
X879550Y806000D02*
X881280Y804270D01*
X1011000Y695000D02*
Y703512D01*
X884074Y790926D02*
X970000Y705000D01*
X884074Y790926D02*
Y801631D01*
X875312Y807488D02*
X876800Y806000D01*
X1115000Y735000D02*
X1115000Y735000D01*
X1100000Y735000D02*
X1115000D01*
X965000Y780000D02*
X1055000D01*
X876800Y822500D02*
X922500D01*
X965000Y780000D01*
X1127337Y732087D02*
Y776175D01*
X1115000Y727000D02*
X1122250D01*
X1118512Y785000D02*
X1127337Y776175D01*
X971513Y785000D02*
X1118512D01*
X1122250Y727000D02*
X1127337Y732087D01*
X924013Y832500D02*
X971513Y785000D01*
X876800Y832500D02*
X924013D01*
X1148534Y743534D02*
Y745638D01*
X1148000Y663376D02*
Y743000D01*
X1136739Y747126D02*
X1147046D01*
X1148534Y745638D01*
X1148000Y743000D02*
X1148534Y743534D01*
X1132126Y751739D02*
X1136739Y747126D01*
X1132126Y751739D02*
Y767874D01*
X1132000Y768000D02*
X1132126Y767874D01*
X869526Y807488D02*
X875312D01*
X869526D02*
Y853038D01*
X871488Y855000D01*
X875800D01*
X876800Y854000D01*
Y822500D02*
Y827500D01*
Y832500D02*
Y837500D01*
X1161250Y806000D02*
X1170000D01*
X1151000Y795000D02*
Y795750D01*
X1161250Y806000D01*
X975000Y895500D02*
X1075500D01*
X1059600Y865000D02*
X1095000Y900400D01*
X1045000Y865000D02*
X1059600D01*
X1089250Y772000D02*
X1090000D01*
X1092000Y770000D01*
X1090354D02*
X1092000D01*
X1090000Y770354D02*
X1090354Y770000D01*
X1215115Y670335D02*
X1215450Y670000D01*
X1220000D01*
X1221000Y671000D01*
X1229000D01*
X1157134Y666458D02*
X1159964D01*
X1155338Y664662D02*
X1157134Y666458D01*
X1163967Y670462D02*
X1166717D01*
X1159964Y666458D02*
X1163967Y670462D01*
X1155338Y654662D02*
Y664662D01*
X1219624Y680190D02*
X1220814Y679000D01*
X1149190Y664071D02*
X1164119Y679000D01*
X1218929Y680190D02*
X1219624D01*
X1155338Y654662D02*
X1156000Y654000D01*
X1115000Y719000D02*
X1129000D01*
X1130000Y720000D01*
X1140000Y755000D02*
Y768000D01*
X1103814Y722000D02*
X1106814Y719000D01*
X1115000D01*
X1080000Y722000D02*
X1103814D01*
X1205000Y750000D02*
Y755000D01*
X1212874Y746739D02*
Y753261D01*
X1212000Y754136D02*
X1212874Y753261D01*
X1212000Y687119D02*
Y745864D01*
X1164119Y679000D02*
X1219624D01*
X1212000Y745864D02*
X1212874Y746739D01*
X1212000Y754136D02*
Y776186D01*
X1204662Y755338D02*
X1205000Y755000D01*
X1204662Y755338D02*
Y767338D01*
X1204000Y768000D02*
X1204662Y767338D01*
X1307500Y733500D02*
X1309500Y735500D01*
X1307500Y724500D02*
Y733500D01*
X1256250Y671000D02*
X1264250Y663000D01*
X1229000Y671000D02*
X1256250D01*
X1264250Y663000D02*
X1265000D01*
X1200155Y627000D02*
X1230000D01*
Y605000D02*
Y615000D01*
Y627000D02*
Y630000D01*
X895000Y855000D02*
X898846D01*
X898846Y855000D01*
X996000Y515000D02*
X1010000D01*
X994500Y513500D02*
X996000Y515000D01*
X1022250Y614250D02*
X1024250D01*
X1018000Y610000D02*
X1022250Y614250D01*
X1015000Y610000D02*
X1018000D01*
X870000Y623865D02*
Y670000D01*
X866000Y590000D02*
Y619865D01*
X870000Y623865D01*
X860000Y625000D02*
Y638000D01*
X859500Y638500D02*
X860000Y638000D01*
X999000Y637500D02*
Y695000D01*
Y637500D02*
X1022250Y614250D01*
X1106922D02*
X1108966Y612206D01*
X1146157D01*
X1147794Y613843D01*
Y615044D01*
X1157000Y624250D02*
Y625000D01*
X1065750Y614250D02*
X1106922D01*
X1147794Y615044D02*
X1157000Y624250D01*
X1199131Y625976D02*
X1200155Y627000D01*
X1157000Y625000D02*
X1157976Y625976D01*
X1199131D01*
X1325000Y571000D02*
X1326500Y569500D01*
X1325000Y571000D02*
Y580000D01*
X1080400Y900400D02*
X1095000D01*
X1229351D02*
X1229751Y900000D01*
X1095000Y900400D02*
X1229351D01*
X1229751Y900000D02*
X1245000D01*
X1291488Y511488D02*
X1295000D01*
Y519000D01*
X1290000Y510000D02*
X1291488Y511488D01*
X1293500Y520500D02*
X1295000Y519000D01*
X800000Y670000D02*
X809000D01*
X810500Y671500D01*
X944000Y545000D02*
X945500Y546500D01*
X935000Y545000D02*
X944000D01*
X1140000Y525000D02*
X1148000D01*
X1150000Y523000D01*
X1506500Y694500D02*
Y708500D01*
X1505000Y710000D02*
X1506500Y708500D01*
X1499500Y813500D02*
X1508512D01*
X1510000Y814988D01*
Y815000D01*
X1355000Y1009000D02*
Y1010000D01*
X1367500Y996500D02*
X1370500D01*
X1355000Y1009000D02*
X1367500Y996500D01*
X1200111Y1078976D02*
X1208512D01*
X1189889D02*
X1191739Y1077126D01*
X1176024Y1078976D02*
X1189889D01*
X1191739Y1077126D02*
X1198261D01*
X1200111Y1078976D01*
X1195000Y1085000D02*
X1211000D01*
X990000Y1113000D02*
Y1115000D01*
Y1113000D02*
X991500Y1111500D01*
X1005500D01*
X811500Y1016500D02*
X830500D01*
X810000Y1015000D02*
X811500Y1016500D01*
X795000Y950000D02*
X910000D01*
X935000Y975000D02*
X1115000D01*
X910000Y950000D02*
X935000Y975000D01*
X879500Y1016500D02*
X882500D01*
X944500Y1078500D02*
X1005500D01*
X882500Y1016500D02*
X944500Y1078500D01*
X1054500Y1111500D02*
X1056000Y1110000D01*
X1110000D01*
X1140000Y1080000D02*
X1175000D01*
X1110000Y1110000D02*
X1140000Y1080000D01*
X1175000D02*
X1176024Y1078976D01*
X1210000Y1053000D02*
Y1077488D01*
X1208512Y1078976D02*
X1210000Y1077488D01*
Y1053000D02*
X1211000Y1052000D01*
X1263000Y1085000D02*
X1357524Y990476D01*
X1365000Y966730D02*
Y988988D01*
X1260000Y1085000D02*
X1263000D01*
X1357524Y990476D02*
X1363512D01*
X1365000Y988988D01*
X1368230Y963500D02*
X1370500D01*
X1365000Y966730D02*
X1368230Y963500D01*
X1422730Y999730D02*
X1450230D01*
X1450500Y1000000D01*
X1419500Y996500D02*
X1422730Y999730D01*
X1450500Y1000000D02*
X1475000D01*
X1550000Y925000D01*
Y650000D02*
Y925000D01*
X1370000Y470000D02*
X1550000Y650000D01*
X816730Y628115D02*
X974845Y470000D01*
X810500Y638500D02*
X813500D01*
X816730Y635270D01*
Y628115D02*
Y635270D01*
X974845Y470000D02*
X1370000D01*
X859500Y671500D02*
X859512Y671488D01*
X868512D01*
X870000Y670000D01*
X942500Y513500D02*
X945500D01*
X866000Y590000D02*
X942500Y513500D01*
X997500Y546500D02*
X1054000Y490000D01*
X1150000D01*
X994500Y546500D02*
X997500D01*
X1199000Y523000D02*
X1201000Y525000D01*
X1235000D01*
X1275000Y485000D01*
X1370000D01*
X1540000Y655000D02*
Y845000D01*
X1370000Y485000D02*
X1540000Y655000D01*
X1538500Y846500D02*
X1540000Y845000D01*
X1499500Y846500D02*
X1538500D01*
X1473500Y694500D02*
X1474988Y695988D01*
X1480000D02*
Y800000D01*
X1474988Y695988D02*
X1480000D01*
X1450500Y813500D02*
X1466500D01*
X1480000Y800000D01*
X1505000Y644000D02*
X1506500Y645500D01*
X1505000Y630000D02*
Y644000D01*
X1395500Y520500D02*
X1505000Y630000D01*
X1326500Y520500D02*
X1395500D01*
X1170000Y786488D02*
Y794000D01*
X1155000Y785000D02*
X1168512D01*
X1170000Y786488D01*
X1150000Y780000D02*
X1155000Y785000D01*
X1150000Y778186D02*
Y780000D01*
X1148000Y776186D02*
X1150000Y778186D01*
X1148000Y768000D02*
Y776186D01*
X1353500Y569500D02*
X1355000Y571000D01*
X1326500Y569500D02*
X1353500D01*
X1300000Y545000D02*
X1355000D01*
X1296730Y523730D02*
Y541730D01*
X1300000Y545000D01*
X1293500Y520500D02*
X1296730Y523730D01*
X1290270Y572730D02*
X1293500Y569500D01*
X1290270Y572730D02*
Y584486D01*
X1291488Y595000D02*
X1300000D01*
X1290000Y584756D02*
X1290270Y584486D01*
X1290000Y584756D02*
Y593512D01*
X1291488Y595000D01*
X1300000D02*
X1305000Y600000D01*
Y629739D01*
X1305261Y630000D01*
X1273512Y650000D02*
X1275000Y648512D01*
X1213598Y650000D02*
X1273512D01*
X1274739Y630000D02*
X1275000Y630261D01*
Y648512D01*
X1212000Y651598D02*
Y654000D01*
Y651598D02*
X1213598Y650000D01*
X1395000Y710000D02*
Y723692D01*
X1396308Y725000D01*
X1277874Y702126D02*
X1353403D01*
X1361277Y710000D01*
X1265000Y715000D02*
X1277874Y702126D01*
X1345000Y710000D02*
Y728692D01*
X1361277Y710000D02*
X1364635D01*
X1379635Y725000D02*
X1380000D01*
X1364635Y710000D02*
X1379635Y725000D01*
X1361277Y710000D02*
X1362854Y711577D01*
X1330000Y716488D02*
Y745000D01*
X1345000D01*
X1265000Y675000D02*
Y685000D01*
X1276488Y715000D02*
X1328512D01*
X1289500Y720500D02*
X1290000Y720000D01*
X1289500Y720500D02*
Y732500D01*
X1307500Y724500D02*
X1312500D01*
X1280750Y747500D02*
X1291550D01*
X1229000Y703000D02*
X1236250D01*
X1280750Y747500D01*
X1275000Y723000D02*
X1289500Y737500D01*
X1275000Y716488D02*
Y723000D01*
Y716488D02*
X1276488Y715000D01*
X1328512D02*
X1330000Y716488D01*
X1229000Y735000D02*
X1258512D01*
X1275000Y751488D01*
X1265000Y725000D02*
X1282500Y742500D01*
X1291550D01*
X1265000Y715000D02*
Y725000D01*
X1258000Y743000D02*
X1270000Y755000D01*
X1229000Y743000D02*
X1258000D01*
X1011000Y695000D02*
X1099750D01*
X1107750Y703000D02*
X1115000D01*
X1099750Y695000D02*
X1107750Y703000D01*
X1114500Y710500D02*
X1115000Y711000D01*
X1080000Y710000D02*
X1080500Y710500D01*
X1114500D01*
X1204000Y611000D02*
X1205000Y610000D01*
X1204000Y611000D02*
Y619500D01*
X1195000Y610000D02*
X1196000Y611000D01*
Y619500D01*
X1145000Y615000D02*
Y625000D01*
X1194270Y632230D02*
X1194770D01*
X1196000Y630500D02*
Y631000D01*
X1194770Y632230D02*
X1196000Y631000D01*
X1191500Y635000D02*
X1194270Y632230D01*
X1175000Y635000D02*
X1191500D01*
X1172000Y638000D02*
Y654000D01*
Y638000D02*
X1175000Y635000D01*
X1125000Y810000D02*
X1130000Y805000D01*
Y804750D02*
X1139000Y795750D01*
X1130000Y804750D02*
Y805000D01*
X1203500Y768500D02*
Y804500D01*
X1139000Y795000D02*
Y795750D01*
X1095000Y840000D02*
Y875000D01*
X1107532Y727000D02*
X1115000D01*
X1107750Y743000D02*
X1115000D01*
X1065750Y635750D02*
X1130631D01*
X1024250D02*
X1065750D01*
X1130631D02*
X1139338Y644457D01*
X1115000Y743000D02*
X1115662Y743662D01*
X1132000Y768000D02*
Y787250D01*
X1115000Y743000D02*
X1115662Y742338D01*
X1024250Y614250D02*
X1065750D01*
X1139338Y644457D02*
Y653338D01*
X1140000Y654000D01*
X1139000Y794250D02*
Y795000D01*
X1132000Y787250D02*
X1139000Y794250D01*
X1260250Y679000D02*
X1264250Y675000D01*
X1229000Y679000D02*
X1260250D01*
X1264250Y675000D02*
X1265000D01*
X1203000Y805000D02*
X1203500Y804500D01*
Y768500D02*
X1204000Y768000D01*
X1215000Y779186D02*
Y805000D01*
X1212000Y776186D02*
X1215000Y779186D01*
X1145000Y635522D02*
X1148000Y638522D01*
X1145000Y625000D02*
Y635522D01*
X1148000Y638522D02*
Y654000D01*
X1212000Y687119D02*
X1218929Y680190D01*
X1220814Y679000D02*
X1229000D01*
X1149190Y663376D02*
Y664071D01*
X1148000Y662186D02*
X1149190Y663376D01*
X1148000Y654000D02*
Y662186D01*
X1013000Y905000D02*
X1015000Y903000D01*
X1115000Y945800D02*
Y975000D01*
X1095000Y925800D02*
X1115000Y945800D01*
X975000Y905000D02*
X1013000D01*
X1072200Y903000D02*
X1095000Y925800D01*
X1015000Y903000D02*
X1072200D01*
X1075500Y895500D02*
X1080400Y900400D01*
X947165Y860261D02*
X952676Y865771D01*
X945000Y860261D02*
X947165D01*
X952676Y865771D02*
Y886000D01*
X995500Y865000D02*
X1025000D01*
X974500D02*
X975000Y865500D01*
Y886000D01*
D16*
X876800Y812500D02*
D03*
Y817500D02*
D03*
Y822500D02*
D03*
Y827500D02*
D03*
Y832500D02*
D03*
Y837500D02*
D03*
Y842500D02*
D03*
Y847500D02*
D03*
D17*
Y806000D02*
D03*
Y854000D02*
D03*
Y798000D02*
D03*
Y862000D02*
D03*
D18*
X871050Y778900D02*
D03*
Y881100D02*
D03*
X831750Y778900D02*
D03*
Y881100D02*
D03*
D19*
X1499500Y813500D02*
D03*
Y846500D02*
D03*
X1450500D02*
D03*
Y813500D02*
D03*
X945500Y546500D02*
D03*
Y513500D02*
D03*
X994500D02*
D03*
Y546500D02*
D03*
X1150000Y523000D02*
D03*
Y490000D02*
D03*
X1199000D02*
D03*
Y523000D02*
D03*
X810500Y671500D02*
D03*
Y638500D02*
D03*
X859500D02*
D03*
Y671500D02*
D03*
X1370500Y996500D02*
D03*
Y963500D02*
D03*
X1419500D02*
D03*
Y996500D02*
D03*
X1211000Y1085000D02*
D03*
Y1052000D02*
D03*
X1260000D02*
D03*
Y1085000D02*
D03*
X1005500Y1111500D02*
D03*
Y1078500D02*
D03*
X1054500D02*
D03*
Y1111500D02*
D03*
X830500Y1016500D02*
D03*
Y983500D02*
D03*
X879500D02*
D03*
Y1016500D02*
D03*
D20*
X1506500Y694500D02*
D03*
X1473500D02*
D03*
Y645500D02*
D03*
X1506500D02*
D03*
X1293500Y520500D02*
D03*
X1326500D02*
D03*
Y569500D02*
D03*
X1293500D02*
D03*
D21*
X1170000Y806000D02*
D03*
Y794000D02*
D03*
X1080000Y722000D02*
D03*
Y710000D02*
D03*
X1230000Y627000D02*
D03*
Y615000D02*
D03*
X1265000Y663000D02*
D03*
Y675000D02*
D03*
X1090000Y772000D02*
D03*
Y760000D02*
D03*
D22*
X1345000Y728692D02*
D03*
Y745000D02*
D03*
D23*
X1396308Y725000D02*
D03*
X1380000D02*
D03*
D24*
X1196000Y619500D02*
D03*
Y630500D02*
D03*
X1204000D02*
D03*
Y619500D02*
D03*
D25*
X1132000Y768000D02*
D03*
X1140000D02*
D03*
X1148000D02*
D03*
X1156000D02*
D03*
X1164000D02*
D03*
X1172000D02*
D03*
X1180000D02*
D03*
X1188000D02*
D03*
X1196000D02*
D03*
X1204000D02*
D03*
X1212000D02*
D03*
Y654000D02*
D03*
X1204000D02*
D03*
X1196000D02*
D03*
X1188000D02*
D03*
X1180000D02*
D03*
X1172000D02*
D03*
X1164000D02*
D03*
X1156000D02*
D03*
X1148000D02*
D03*
X1140000D02*
D03*
X1132000D02*
D03*
D26*
X1229000Y751000D02*
D03*
Y743000D02*
D03*
Y735000D02*
D03*
Y727000D02*
D03*
Y719000D02*
D03*
Y711000D02*
D03*
Y703000D02*
D03*
Y695000D02*
D03*
Y687000D02*
D03*
Y679000D02*
D03*
Y671000D02*
D03*
X1115000D02*
D03*
Y679000D02*
D03*
Y687000D02*
D03*
Y695000D02*
D03*
Y703000D02*
D03*
Y711000D02*
D03*
Y719000D02*
D03*
Y727000D02*
D03*
Y735000D02*
D03*
Y743000D02*
D03*
Y751000D02*
D03*
D27*
X1203000Y805000D02*
D03*
X1215000D02*
D03*
X1157000Y625000D02*
D03*
X1145000D02*
D03*
X999000Y695000D02*
D03*
X1011000D02*
D03*
X1151000Y795000D02*
D03*
X1139000D02*
D03*
D28*
X915000Y806154D02*
D03*
Y793846D02*
D03*
D29*
X911154Y855000D02*
D03*
X898846D02*
D03*
D30*
X1015000Y895000D02*
D03*
Y903000D02*
D03*
D31*
X945000Y829739D02*
D03*
Y860261D02*
D03*
D32*
X952676Y886000D02*
D03*
Y905000D02*
D03*
X975000D02*
D03*
Y895500D02*
D03*
D33*
Y886000D02*
D03*
D34*
X974500Y865000D02*
D03*
X995500D02*
D03*
D35*
X1045000D02*
D03*
X1025000D02*
D03*
D36*
X1065750Y614250D02*
D03*
X1024250D02*
D03*
X1065750Y635750D02*
D03*
X1024250D02*
D03*
D37*
X1305000Y740000D02*
D03*
D38*
X1297500Y753593D02*
D03*
X1302500D02*
D03*
X1307500Y753450D02*
D03*
X1312500D02*
D03*
X1318593Y747500D02*
D03*
Y742500D02*
D03*
X1318450Y737500D02*
D03*
Y732500D02*
D03*
X1312500Y724500D02*
D03*
X1307500D02*
D03*
X1302500Y726550D02*
D03*
X1297500D02*
D03*
X1289500Y732500D02*
D03*
Y737500D02*
D03*
X1291550Y742500D02*
D03*
Y747500D02*
D03*
D39*
X1305261Y630000D02*
D03*
X1274739D02*
D03*
D40*
X1355000Y571000D02*
D03*
Y545000D02*
D03*
D47*
X866050Y801100D02*
D03*
Y858900D02*
D03*
D51*
X1309500Y735500D02*
D03*
X1300500D02*
D03*
X1309500Y744500D02*
D03*
X1300500D02*
D03*
D52*
X1095000Y925800D02*
D03*
Y900400D02*
D03*
Y875000D02*
D03*
D53*
X1400000Y660000D02*
D03*
X1090000Y580000D02*
D03*
X900000Y700000D02*
D03*
X1195000Y1015000D02*
D03*
X1080000Y1020000D02*
D03*
X855000Y1095000D02*
D03*
X850000Y525000D02*
D03*
X1490000D02*
D03*
X1540000Y1025000D02*
D03*
X1360000Y1140000D02*
D03*
X1090000Y755000D02*
D03*
X915000Y790000D02*
D03*
X857879Y864407D02*
D03*
X1090000Y770354D02*
D03*
X1215115Y670335D02*
D03*
X1166717Y670462D02*
D03*
X1130000Y720000D02*
D03*
X1140000Y755000D02*
D03*
X1205000Y750000D02*
D03*
X945000Y825000D02*
D03*
X1230000Y630000D02*
D03*
X1210000Y490000D02*
D03*
X895000Y855000D02*
D03*
X1010000Y515000D02*
D03*
X1015000Y610000D02*
D03*
X860000Y625000D02*
D03*
X1325000Y580000D02*
D03*
X1475000Y635000D02*
D03*
X1440000Y845000D02*
D03*
X1425000Y965000D02*
D03*
X1270000Y1050000D02*
D03*
X1065000Y1080000D02*
D03*
X890000Y985000D02*
D03*
X1245000Y900000D02*
D03*
X1095000Y840000D02*
D03*
D54*
X1230000Y605000D02*
D03*
X1290000Y510000D02*
D03*
X800000Y670000D02*
D03*
X935000Y545000D02*
D03*
X1140000Y525000D02*
D03*
X1505000Y710000D02*
D03*
X1510000Y815000D02*
D03*
X1355000Y1010000D02*
D03*
X1195000Y1085000D02*
D03*
X990000Y1115000D02*
D03*
X810000Y1015000D02*
D03*
X1395000Y710000D02*
D03*
X1345000D02*
D03*
X1265000Y685000D02*
D03*
X1290000Y720000D02*
D03*
X1205000Y610000D02*
D03*
X1195000D02*
D03*
X1145000Y615000D02*
D03*
X1125000Y810000D02*
D03*
M02*
