G04*
G04 #@! TF.GenerationSoftware,Altium Limited,Altium Designer,24.9.1 (31)*
G04*
G04 Layer_Color=8388736*
%FSLAX44Y44*%
%MOMM*%
G71*
G04*
G04 #@! TF.SameCoordinates,E34D74D8-3647-4743-B869-721777AC5566*
G04*
G04*
G04 #@! TF.FilePolarity,Negative*
G04*
G01*
G75*
%ADD16R,1.1500X0.3000*%
%ADD17R,1.1500X0.6000*%
%ADD18R,2.0000X2.1800*%
%ADD21R,0.9000X0.7500*%
%ADD22R,1.0621X1.1350*%
%ADD23R,1.1350X1.0621*%
%ADD24R,0.5000X0.6000*%
%ADD27R,0.7500X0.9000*%
%ADD28R,0.8621X0.7350*%
%ADD29R,0.7350X0.8621*%
%ADD30R,0.5200X0.5200*%
%ADD31R,1.8582X1.3561*%
G04:AMPARAMS|DCode=32|XSize=1.3383mm|YSize=0.578mm|CornerRadius=0.289mm|HoleSize=0mm|Usage=FLASHONLY|Rotation=180.000|XOffset=0mm|YOffset=0mm|HoleType=Round|Shape=RoundedRectangle|*
%AMROUNDEDRECTD32*
21,1,1.3383,0.0000,0,0,180.0*
21,1,0.7603,0.5780,0,0,180.0*
1,1,0.5780,-0.3802,0.0000*
1,1,0.5780,0.3802,0.0000*
1,1,0.5780,0.3802,0.0000*
1,1,0.5780,-0.3802,0.0000*
%
%ADD32ROUNDEDRECTD32*%
%ADD33R,1.3383X0.5780*%
%ADD36R,1.0500X0.6500*%
%ADD37R,1.6000X1.6000*%
%ADD38C,0.2520*%
%ADD39R,1.3561X1.8582*%
%ADD40R,2.7000X1.2000*%
%ADD41R,1.9064X1.3064*%
%ADD42R,1.3064X1.9064*%
%ADD43O,1.0064X2.4564*%
%ADD44O,2.4564X1.0064*%
%ADD45R,1.6064X1.6064*%
%ADD46R,1.6064X1.8564*%
%ADD47C,0.6500*%
%ADD48C,1.9364*%
%ADD49C,1.6764*%
%ADD50C,0.5842*%
%ADD51C,0.6000*%
G36*
X1293600Y733900D02*
X1293878D01*
X1294393Y733687D01*
X1294787Y733293D01*
X1295000Y732778D01*
Y732500D01*
Y732222D01*
X1294787Y731707D01*
X1294393Y731313D01*
X1293878Y731100D01*
X1288100D01*
Y733900D01*
X1293600Y733900D01*
D02*
G37*
G36*
X1294393Y738687D02*
X1294787Y738293D01*
X1295000Y737778D01*
Y737500D01*
Y737222D01*
X1294787Y736707D01*
X1294393Y736313D01*
X1293878Y736100D01*
X1288100D01*
Y738900D01*
X1293878D01*
X1294393Y738687D01*
D02*
G37*
G36*
X1298293Y729787D02*
X1298687Y729393D01*
X1298900Y728878D01*
Y728600D01*
X1298900D01*
Y723100D01*
X1296100D01*
Y728600D01*
Y728878D01*
X1296313Y729393D01*
X1296707Y729787D01*
X1297222Y730000D01*
X1297778D01*
X1298293Y729787D01*
D02*
G37*
G36*
X1303293D02*
X1303687Y729393D01*
X1303900Y728878D01*
Y728600D01*
Y723100D01*
X1301100D01*
Y728600D01*
Y728878D01*
X1301313Y729393D01*
X1301707Y729787D01*
X1302222Y730000D01*
X1302778D01*
X1303293Y729787D01*
D02*
G37*
G36*
X1294393Y743687D02*
X1294787Y743293D01*
X1295000Y742778D01*
Y742500D01*
Y742222D01*
X1294787Y741707D01*
X1294393Y741313D01*
X1293878Y741100D01*
X1288100D01*
Y743900D01*
X1293878D01*
X1294393Y743687D01*
D02*
G37*
G36*
Y748687D02*
X1294787Y748293D01*
X1295000Y747778D01*
Y747500D01*
Y747222D01*
X1294787Y746707D01*
X1294393Y746313D01*
X1293878Y746100D01*
X1293600D01*
Y746100D01*
X1288100D01*
Y748900D01*
X1293878D01*
X1294393Y748687D01*
D02*
G37*
G36*
X1298900Y751400D02*
Y751122D01*
X1298687Y750607D01*
X1298293Y750213D01*
X1297778Y750000D01*
X1297222D01*
X1296707Y750213D01*
X1296313Y750607D01*
X1296100Y751122D01*
Y751400D01*
Y756900D01*
X1298900D01*
X1298900Y751400D01*
D02*
G37*
G36*
X1303900D02*
Y751122D01*
X1303687Y750607D01*
X1303293Y750213D01*
X1302778Y750000D01*
X1302222D01*
X1301707Y750213D01*
X1301313Y750607D01*
X1301100Y751122D01*
Y751400D01*
Y756900D01*
X1303900D01*
Y751400D01*
D02*
G37*
G36*
X1308293Y729787D02*
X1308687Y729393D01*
X1308900Y728878D01*
Y728600D01*
Y723100D01*
X1306100D01*
Y728600D01*
Y728878D01*
X1306313Y729393D01*
X1306707Y729787D01*
X1307222Y730000D01*
X1307778D01*
X1308293Y729787D01*
D02*
G37*
G36*
X1313293D02*
X1313687Y729393D01*
X1313900Y728878D01*
Y728600D01*
Y723100D01*
X1311100D01*
X1311100Y728600D01*
Y728878D01*
X1311313Y729393D01*
X1311707Y729787D01*
X1312222Y730000D01*
X1312778D01*
X1313293Y729787D01*
D02*
G37*
G36*
X1321900Y731100D02*
X1316122D01*
X1315607Y731313D01*
X1315213Y731707D01*
X1315000Y732222D01*
Y732500D01*
Y732778D01*
X1315213Y733293D01*
X1315607Y733687D01*
X1316122Y733900D01*
X1316400D01*
Y733900D01*
X1321900D01*
Y731100D01*
D02*
G37*
G36*
Y736100D02*
X1316122D01*
X1315607Y736313D01*
X1315213Y736707D01*
X1315000Y737222D01*
Y737500D01*
Y737778D01*
X1315213Y738293D01*
X1315607Y738687D01*
X1316122Y738900D01*
X1321900D01*
Y736100D01*
D02*
G37*
G36*
X1308900Y751400D02*
Y751122D01*
X1308687Y750607D01*
X1308293Y750213D01*
X1307778Y750000D01*
X1307222D01*
X1306707Y750213D01*
X1306313Y750607D01*
X1306100Y751122D01*
Y751400D01*
Y756900D01*
X1308900D01*
Y751400D01*
D02*
G37*
G36*
X1313900D02*
Y751122D01*
X1313687Y750607D01*
X1313293Y750213D01*
X1312778Y750000D01*
X1312222D01*
X1311707Y750213D01*
X1311313Y750607D01*
X1311100Y751122D01*
Y751400D01*
X1311100D01*
Y756900D01*
X1313900D01*
Y751400D01*
D02*
G37*
G36*
X1321900Y741100D02*
X1316122D01*
X1315607Y741313D01*
X1315213Y741707D01*
X1315000Y742222D01*
Y742500D01*
Y742778D01*
X1315213Y743293D01*
X1315607Y743687D01*
X1316122Y743900D01*
X1321900D01*
Y741100D01*
D02*
G37*
G36*
Y746100D02*
X1316400Y746100D01*
X1316122D01*
X1315607Y746313D01*
X1315213Y746707D01*
X1315000Y747222D01*
Y747500D01*
Y747778D01*
X1315213Y748293D01*
X1315607Y748687D01*
X1316122Y748900D01*
X1321900D01*
Y746100D01*
D02*
G37*
D16*
X876800Y812500D02*
D03*
Y817500D02*
D03*
Y822500D02*
D03*
Y827500D02*
D03*
Y832500D02*
D03*
Y837500D02*
D03*
Y842500D02*
D03*
Y847500D02*
D03*
D17*
Y806000D02*
D03*
Y854000D02*
D03*
Y798000D02*
D03*
Y862000D02*
D03*
D18*
X871050Y778900D02*
D03*
Y881100D02*
D03*
X831750Y778900D02*
D03*
Y881100D02*
D03*
D21*
X1170000Y806000D02*
D03*
Y794000D02*
D03*
X1080000Y722000D02*
D03*
Y710000D02*
D03*
X1230000Y627000D02*
D03*
Y615000D02*
D03*
X1265000Y663000D02*
D03*
Y675000D02*
D03*
X1090000Y772000D02*
D03*
Y760000D02*
D03*
D22*
X1345000Y728692D02*
D03*
Y745000D02*
D03*
D23*
X1396308Y725000D02*
D03*
X1380000D02*
D03*
D24*
X1196000Y619500D02*
D03*
Y630500D02*
D03*
X1204000D02*
D03*
Y619500D02*
D03*
D27*
X1203000Y805000D02*
D03*
X1215000D02*
D03*
X1157000Y625000D02*
D03*
X1145000D02*
D03*
X999000Y695000D02*
D03*
X1011000D02*
D03*
X1151000Y795000D02*
D03*
X1139000D02*
D03*
D28*
X915000Y806154D02*
D03*
Y793846D02*
D03*
D29*
X911154Y855000D02*
D03*
X898846D02*
D03*
D30*
X1015000Y895000D02*
D03*
Y903000D02*
D03*
D31*
X945000Y829739D02*
D03*
Y860261D02*
D03*
D32*
X952676Y886000D02*
D03*
Y905000D02*
D03*
X975000D02*
D03*
Y895500D02*
D03*
D33*
Y886000D02*
D03*
D36*
X1065750Y614250D02*
D03*
X1024250D02*
D03*
X1065750Y635750D02*
D03*
X1024250D02*
D03*
D37*
X1305000Y740000D02*
D03*
D38*
X1297500Y753593D02*
D03*
X1302500D02*
D03*
X1307500Y753450D02*
D03*
X1312500D02*
D03*
X1318593Y747500D02*
D03*
Y742500D02*
D03*
X1318450Y737500D02*
D03*
Y732500D02*
D03*
X1312500Y724500D02*
D03*
X1307500D02*
D03*
X1302500Y726550D02*
D03*
X1297500D02*
D03*
X1289500Y732500D02*
D03*
Y737500D02*
D03*
X1291550Y742500D02*
D03*
Y747500D02*
D03*
D39*
X1305261Y630000D02*
D03*
X1274739D02*
D03*
D40*
X1355000Y571000D02*
D03*
Y545000D02*
D03*
D41*
X1499500Y813500D02*
D03*
Y846500D02*
D03*
X1450500D02*
D03*
Y813500D02*
D03*
X945500Y546500D02*
D03*
Y513500D02*
D03*
X994500D02*
D03*
Y546500D02*
D03*
X1150000Y523000D02*
D03*
Y490000D02*
D03*
X1199000D02*
D03*
Y523000D02*
D03*
X810500Y671500D02*
D03*
Y638500D02*
D03*
X859500D02*
D03*
Y671500D02*
D03*
X1370500Y996500D02*
D03*
Y963500D02*
D03*
X1419500D02*
D03*
Y996500D02*
D03*
X1211000Y1085000D02*
D03*
Y1052000D02*
D03*
X1260000D02*
D03*
Y1085000D02*
D03*
X1005500Y1111500D02*
D03*
Y1078500D02*
D03*
X1054500D02*
D03*
Y1111500D02*
D03*
X830500Y1016500D02*
D03*
Y983500D02*
D03*
X879500D02*
D03*
Y1016500D02*
D03*
D42*
X1506500Y694500D02*
D03*
X1473500D02*
D03*
Y645500D02*
D03*
X1506500D02*
D03*
X1293500Y520500D02*
D03*
X1326500D02*
D03*
Y569500D02*
D03*
X1293500D02*
D03*
D43*
X1132000Y768000D02*
D03*
X1140000D02*
D03*
X1148000D02*
D03*
X1156000D02*
D03*
X1164000D02*
D03*
X1172000D02*
D03*
X1180000D02*
D03*
X1188000D02*
D03*
X1196000D02*
D03*
X1204000D02*
D03*
X1212000D02*
D03*
Y654000D02*
D03*
X1204000D02*
D03*
X1196000D02*
D03*
X1188000D02*
D03*
X1180000D02*
D03*
X1172000D02*
D03*
X1164000D02*
D03*
X1156000D02*
D03*
X1148000D02*
D03*
X1140000D02*
D03*
X1132000D02*
D03*
D44*
X1229000Y751000D02*
D03*
Y743000D02*
D03*
Y735000D02*
D03*
Y727000D02*
D03*
Y719000D02*
D03*
Y711000D02*
D03*
Y703000D02*
D03*
Y695000D02*
D03*
Y687000D02*
D03*
Y679000D02*
D03*
Y671000D02*
D03*
X1115000D02*
D03*
Y679000D02*
D03*
Y687000D02*
D03*
Y695000D02*
D03*
Y703000D02*
D03*
Y711000D02*
D03*
Y719000D02*
D03*
Y727000D02*
D03*
Y735000D02*
D03*
Y743000D02*
D03*
Y751000D02*
D03*
D45*
X974500Y865000D02*
D03*
X995500D02*
D03*
D46*
X1045000D02*
D03*
X1025000D02*
D03*
D47*
X866050Y801100D02*
D03*
Y858900D02*
D03*
D48*
X1095000Y925800D02*
D03*
Y900400D02*
D03*
Y875000D02*
D03*
D49*
X1400000Y660000D02*
D03*
X1090000Y580000D02*
D03*
X900000Y700000D02*
D03*
X1195000Y1015000D02*
D03*
X1080000Y1020000D02*
D03*
X855000Y1095000D02*
D03*
X850000Y525000D02*
D03*
X1490000D02*
D03*
X1540000Y1025000D02*
D03*
X1360000Y1140000D02*
D03*
X1090000Y755000D02*
D03*
X915000Y790000D02*
D03*
X857879Y864407D02*
D03*
X1090000Y770354D02*
D03*
X1215115Y670335D02*
D03*
X1166717Y670462D02*
D03*
X1130000Y720000D02*
D03*
X1140000Y755000D02*
D03*
X1205000Y750000D02*
D03*
X945000Y825000D02*
D03*
X1230000Y630000D02*
D03*
X1210000Y490000D02*
D03*
X895000Y855000D02*
D03*
X1010000Y515000D02*
D03*
X1015000Y610000D02*
D03*
X860000Y625000D02*
D03*
X1325000Y580000D02*
D03*
X1475000Y635000D02*
D03*
X1440000Y845000D02*
D03*
X1425000Y965000D02*
D03*
X1270000Y1050000D02*
D03*
X1065000Y1080000D02*
D03*
X890000Y985000D02*
D03*
X1245000Y900000D02*
D03*
X1095000Y840000D02*
D03*
D50*
X1230000Y605000D02*
D03*
X1290000Y510000D02*
D03*
X800000Y670000D02*
D03*
X935000Y545000D02*
D03*
X1140000Y525000D02*
D03*
X1505000Y710000D02*
D03*
X1510000Y815000D02*
D03*
X1355000Y1010000D02*
D03*
X1195000Y1085000D02*
D03*
X990000Y1115000D02*
D03*
X810000Y1015000D02*
D03*
X1395000Y710000D02*
D03*
X1345000D02*
D03*
X1265000Y685000D02*
D03*
X1290000Y720000D02*
D03*
X1205000Y610000D02*
D03*
X1195000D02*
D03*
X1145000Y615000D02*
D03*
X1125000Y810000D02*
D03*
D51*
X1309500Y735500D02*
D03*
X1300500D02*
D03*
X1309500Y744500D02*
D03*
X1300500D02*
D03*
M02*
