G04*
G04 #@! TF.GenerationSoftware,Altium Limited,Altium Designer,24.9.1 (31)*
G04*
G04 Layer_Color=65535*
%FSLAX44Y44*%
%MOMM*%
G71*
G04*
G04 #@! TF.SameCoordinates,E34D74D8-3647-4743-B869-721777AC5566*
G04*
G04*
G04 #@! TF.FilePolarity,Positive*
G04*
G01*
G75*
%ADD10C,0.2500*%
%ADD11C,0.6000*%
%ADD12C,0.2000*%
%ADD13C,0.4000*%
%ADD14C,0.1000*%
%ADD15C,0.2540*%
D10*
X889900Y862012D02*
G03*
X889900Y862012I-1250J0D01*
G01*
X1513750Y813500D02*
G03*
X1513750Y813500I-1250J0D01*
G01*
X1507750Y707500D02*
G03*
X1507750Y707500I-1250J0D01*
G01*
X1213500Y619500D02*
G03*
X1213500Y619500I-1250J0D01*
G01*
X1116250Y759500D02*
G03*
X1116250Y759500I-1250J0D01*
G01*
X987941Y886000D02*
G03*
X987941Y886000I-1250J0D01*
G01*
X1014750Y635750D02*
G03*
X1014750Y635750I-1250J0D01*
G01*
X1284750Y747500D02*
G03*
X1284750Y747500I-1250J0D01*
G01*
X933750Y546500D02*
G03*
X933750Y546500I-1250J0D01*
G01*
X1138250Y523000D02*
G03*
X1138250Y523000I-1250J0D01*
G01*
X1294750Y507500D02*
G03*
X1294750Y507500I-1250J0D01*
G01*
X798750Y671500D02*
G03*
X798750Y671500I-1250J0D01*
G01*
X1358750Y996500D02*
G03*
X1358750Y996500I-1250J0D01*
G01*
X1199250Y1085000D02*
G03*
X1199250Y1085000I-1250J0D01*
G01*
X993750Y1111500D02*
G03*
X993750Y1111500I-1250J0D01*
G01*
X818750Y1016500D02*
G03*
X818750Y1016500I-1250J0D01*
G01*
D11*
X1142500Y743500D02*
G03*
X1142500Y743500I-3000J0D01*
G01*
D12*
X845500Y875700D02*
X857300D01*
X801750D02*
X818000D01*
X801750Y784300D02*
Y875700D01*
X845500Y784300D02*
X857300D01*
X801750D02*
X818000D01*
X1450000Y805000D02*
X1500000D01*
X1450000Y855000D02*
X1500000D01*
Y854500D02*
Y855000D01*
X1450000Y854500D02*
Y855000D01*
Y805000D02*
Y805500D01*
X1500000Y805000D02*
Y805500D01*
Y822000D02*
Y838000D01*
X1450000Y822000D02*
Y838000D01*
X1515000Y645000D02*
Y695000D01*
X1465000Y645000D02*
Y695000D01*
X1465500D01*
X1465000Y645000D02*
X1465500D01*
X1514500D02*
X1515000D01*
X1514500Y695000D02*
X1515000D01*
X1482000D02*
X1498000D01*
X1482000Y645000D02*
X1498000D01*
X1178530Y791303D02*
Y808803D01*
X1161500Y791250D02*
Y808750D01*
X1335500Y729346D02*
Y744346D01*
X1354500Y729346D02*
Y744346D01*
X1380654Y715500D02*
X1395654D01*
X1380654Y734500D02*
X1395654D01*
X1088530Y707303D02*
Y724803D01*
X1071500Y707250D02*
Y724750D01*
X1238530Y612303D02*
Y629803D01*
X1221500Y612250D02*
Y629750D01*
X1193500Y637250D02*
X1206500D01*
X1193500Y612750D02*
X1206500D01*
X1129500Y668500D02*
X1214500D01*
X1129500Y753500D02*
X1214500D01*
Y668500D02*
Y753500D01*
X1129500Y668500D02*
Y753500D01*
X1200197Y813530D02*
X1217697D01*
X1200250Y796500D02*
X1217750D01*
X923500Y792500D02*
Y807500D01*
X906500Y792500D02*
Y807500D01*
X897500Y846500D02*
X912500D01*
X897500Y863500D02*
X912500D01*
X1142303Y616470D02*
X1159803D01*
X1142250Y633500D02*
X1159750D01*
X1008650Y892300D02*
Y905700D01*
X1021350Y892300D02*
Y905700D01*
X937000Y840269D02*
Y849731D01*
X953000Y840269D02*
Y849731D01*
X963309Y881000D02*
Y910000D01*
X964367D01*
Y881000D02*
Y910000D01*
X963309Y881000D02*
X964367D01*
X1034000Y858750D02*
X1036000D01*
X1034000Y871250D02*
X1036000D01*
X996197Y703530D02*
X1013697D01*
X996250Y686500D02*
X1013750D01*
X1136303Y786470D02*
X1153803D01*
X1136250Y803500D02*
X1153750D01*
X1256470Y660197D02*
Y677697D01*
X1273500Y660250D02*
Y677750D01*
X1098530Y757303D02*
Y774803D01*
X1081500Y757250D02*
Y774750D01*
X1024000Y621250D02*
Y628750D01*
X1033250Y609000D02*
X1056750D01*
X1066000Y621250D02*
Y628750D01*
X1033250Y641000D02*
X1056750D01*
X1289500Y752650D02*
Y755500D01*
Y724500D02*
Y727350D01*
X1317650Y724500D02*
X1320500D01*
X1289500D02*
X1292350D01*
X1320500Y752650D02*
Y755500D01*
Y724500D02*
Y727350D01*
X1317650Y755500D02*
X1320500D01*
X1289500D02*
X1292350D01*
X945000Y555000D02*
X995000D01*
X945000Y505000D02*
X995000D01*
X945000D02*
Y505500D01*
X995000Y505000D02*
Y505500D01*
Y554500D02*
Y555000D01*
X945000Y554500D02*
Y555000D01*
Y522000D02*
Y538000D01*
X995000Y522000D02*
Y538000D01*
X1149500Y531500D02*
X1199500D01*
X1149500Y481500D02*
X1199500D01*
X1149500D02*
Y482000D01*
X1199500Y481500D02*
Y482000D01*
Y531000D02*
Y531500D01*
X1149500Y531000D02*
Y531500D01*
Y498500D02*
Y514500D01*
X1199500Y498500D02*
Y514500D01*
X1285000Y520000D02*
Y570000D01*
X1335000Y520000D02*
Y570000D01*
X1334500Y520000D02*
X1335000D01*
X1334500Y570000D02*
X1335000D01*
X1285000D02*
X1285500D01*
X1285000Y520000D02*
X1285500D01*
X1302000D02*
X1318000D01*
X1302000Y570000D02*
X1318000D01*
X1285269Y622000D02*
X1294731D01*
X1285269Y638000D02*
X1294731D01*
X1369000Y554750D02*
Y561250D01*
X1341000Y554750D02*
Y561250D01*
X810000Y680000D02*
X860000D01*
X810000Y630000D02*
X860000D01*
X810000D02*
Y630500D01*
X860000Y630000D02*
Y630500D01*
Y679500D02*
Y680000D01*
X810000Y679500D02*
Y680000D01*
Y647000D02*
Y663000D01*
X860000Y647000D02*
Y663000D01*
X1370000Y1005000D02*
X1420000D01*
X1370000Y955000D02*
X1420000D01*
X1370000D02*
Y955500D01*
X1420000Y955000D02*
Y955500D01*
Y1004500D02*
Y1005000D01*
X1370000Y1004500D02*
Y1005000D01*
Y972000D02*
Y988000D01*
X1420000Y972000D02*
Y988000D01*
X1210500Y1093500D02*
X1260500D01*
X1210500Y1043500D02*
X1260500D01*
X1210500D02*
Y1044000D01*
X1260500Y1043500D02*
Y1044000D01*
Y1093000D02*
Y1093500D01*
X1210500Y1093000D02*
Y1093500D01*
Y1060500D02*
Y1076500D01*
X1260500Y1060500D02*
Y1076500D01*
X1005000Y1120000D02*
X1055000D01*
X1005000Y1070000D02*
X1055000D01*
X1005000D02*
Y1070500D01*
X1055000Y1070000D02*
Y1070500D01*
Y1119500D02*
Y1120000D01*
X1005000Y1119500D02*
Y1120000D01*
Y1087000D02*
Y1103000D01*
X1055000Y1087000D02*
Y1103000D01*
X830000Y1025000D02*
X880000D01*
X830000Y975000D02*
X880000D01*
X830000D02*
Y975500D01*
X880000Y975000D02*
Y975500D01*
Y1024500D02*
Y1025000D01*
X830000Y1024500D02*
Y1025000D01*
Y992000D02*
Y1008000D01*
X880000Y992000D02*
Y1008000D01*
D13*
X1006500Y858750D02*
Y871250D01*
D14*
X1196600Y855900D02*
Y944900D01*
X1082300Y855900D02*
X1196600D01*
X1082300D02*
Y944900D01*
X1196600D01*
D15*
X812543Y916935D02*
X807464D01*
X810004D01*
Y904239D01*
X807464Y901700D01*
X804925D01*
X802386Y904239D01*
X817621Y901700D02*
X822699D01*
X820160D01*
Y916935D01*
X817621Y914396D01*
X1459187Y894118D02*
Y881422D01*
X1461726Y878882D01*
X1466804D01*
X1469343Y881422D01*
Y894118D01*
X1474422D02*
Y878882D01*
X1484578D01*
X1489657Y891578D02*
X1492196Y894118D01*
X1497274D01*
X1499813Y891578D01*
Y889039D01*
X1497274Y886500D01*
X1494735D01*
X1497274D01*
X1499813Y883961D01*
Y881422D01*
X1497274Y878882D01*
X1492196D01*
X1489657Y881422D01*
X1466342Y732785D02*
Y720089D01*
X1468881Y717550D01*
X1473960D01*
X1476499Y720089D01*
Y732785D01*
X1481577D02*
Y717550D01*
X1491734D01*
X1506969D02*
X1496812D01*
X1506969Y727707D01*
Y730246D01*
X1504430Y732785D01*
X1499351D01*
X1496812Y730246D01*
X1174922Y794765D02*
X1172383Y792226D01*
Y787147D01*
X1174922Y784608D01*
X1185078D01*
X1187617Y787147D01*
Y792226D01*
X1185078Y794765D01*
X1187617Y799843D02*
X1172383D01*
Y807461D01*
X1174922Y810000D01*
X1180000D01*
X1182539Y807461D01*
Y799843D01*
Y804922D02*
X1187617Y810000D01*
Y822696D02*
Y817618D01*
X1185078Y815078D01*
X1180000D01*
X1177461Y817618D01*
Y822696D01*
X1180000Y825235D01*
X1182539D01*
Y815078D01*
X1187617Y832853D02*
X1174922D01*
X1180000D01*
Y830313D01*
Y835392D01*
Y832853D01*
X1174922D01*
X1172383Y835392D01*
X1325817Y761506D02*
Y776741D01*
X1333435D01*
X1335974Y774201D01*
Y769123D01*
X1333435Y766584D01*
X1325817D01*
X1330895D02*
X1335974Y761506D01*
X1341052Y758966D02*
X1351209D01*
X1366444Y774201D02*
X1363905Y776741D01*
X1358826D01*
X1356287Y774201D01*
Y771662D01*
X1358826Y769123D01*
X1363905D01*
X1366444Y766584D01*
Y764045D01*
X1363905Y761506D01*
X1358826D01*
X1356287Y764045D01*
X1371522Y761506D02*
Y776741D01*
X1376601Y771662D01*
X1381679Y776741D01*
Y761506D01*
X1396914Y774201D02*
X1394375Y776741D01*
X1389297D01*
X1386757Y774201D01*
Y764045D01*
X1389297Y761506D01*
X1394375D01*
X1396914Y764045D01*
X1367069Y738652D02*
Y753887D01*
X1374687D01*
X1377226Y751348D01*
Y746270D01*
X1374687Y743730D01*
X1367069D01*
X1372147D02*
X1377226Y738652D01*
X1382304Y736113D02*
X1392461D01*
X1407696Y751348D02*
X1405157Y753887D01*
X1400078D01*
X1397539Y751348D01*
Y748809D01*
X1400078Y746270D01*
X1405157D01*
X1407696Y743730D01*
Y741191D01*
X1405157Y738652D01*
X1400078D01*
X1397539Y741191D01*
X1412774Y753887D02*
Y738652D01*
X1420392D01*
X1422931Y741191D01*
Y751348D01*
X1420392Y753887D01*
X1412774D01*
X1052383Y681991D02*
X1049843Y679452D01*
Y674373D01*
X1052383Y671834D01*
X1062539D01*
X1065078Y674373D01*
Y679452D01*
X1062539Y681991D01*
X1067617Y687069D02*
Y697226D01*
X1049843Y702304D02*
X1062539D01*
X1065078Y704843D01*
Y709922D01*
X1062539Y712461D01*
X1049843D01*
X1052383Y727696D02*
X1049843Y725157D01*
Y720078D01*
X1052383Y717539D01*
X1062539D01*
X1065078Y720078D01*
Y725157D01*
X1062539Y727696D01*
X1054922Y735313D02*
Y740392D01*
X1057461Y742931D01*
X1065078D01*
Y735313D01*
X1062539Y732774D01*
X1060000Y735313D01*
Y742931D01*
X1070157Y748009D02*
X1054922D01*
Y755627D01*
X1057461Y758166D01*
X1062539D01*
X1065078Y755627D01*
Y748009D01*
X1238652Y589608D02*
X1236113Y587069D01*
Y581991D01*
X1238652Y579451D01*
X1248809D01*
X1251348Y581991D01*
Y587069D01*
X1248809Y589608D01*
X1253887Y594687D02*
Y604843D01*
X1236113Y617539D02*
Y612461D01*
X1238652Y609922D01*
X1248809D01*
X1251348Y612461D01*
Y617539D01*
X1248809Y620078D01*
X1238652D01*
X1236113Y617539D01*
X1251348Y625157D02*
Y632774D01*
X1248809Y635313D01*
X1246270Y632774D01*
Y627696D01*
X1243730Y625157D01*
X1241191Y627696D01*
Y635313D01*
Y650548D02*
Y642931D01*
X1243730Y640392D01*
X1248809D01*
X1251348Y642931D01*
Y650548D01*
X1189843Y612617D02*
Y610078D01*
X1194922Y605000D01*
X1200000Y610078D01*
Y612617D01*
X1194922Y605000D02*
Y597382D01*
X1205078D02*
X1210157D01*
X1207618D01*
Y612617D01*
X1205078Y610078D01*
X1102276Y806179D02*
Y793483D01*
X1104815Y790944D01*
X1109893D01*
X1112433Y793483D01*
Y806179D01*
X1117511Y790944D02*
X1122589D01*
X1120050D01*
Y806179D01*
X1117511Y803640D01*
X1202461Y830078D02*
X1199922Y832617D01*
X1194843D01*
X1192304Y830078D01*
Y819922D01*
X1194843Y817382D01*
X1199922D01*
X1202461Y819922D01*
X1207539Y830078D02*
X1210078Y832617D01*
X1215157D01*
X1217696Y830078D01*
Y827539D01*
X1215157Y825000D01*
X1212617D01*
X1215157D01*
X1217696Y822461D01*
Y819922D01*
X1215157Y817382D01*
X1210078D01*
X1207539Y819922D01*
X902617Y774687D02*
X887383D01*
Y782304D01*
X889922Y784843D01*
X895000D01*
X897539Y782304D01*
Y774687D01*
Y779765D02*
X902617Y784843D01*
Y789922D02*
X887383D01*
Y797539D01*
X889922Y800078D01*
X895000D01*
X897539Y797539D01*
Y789922D01*
X902617Y815313D02*
Y805157D01*
X892461Y815313D01*
X889922D01*
X887383Y812774D01*
Y807696D01*
X889922Y805157D01*
X1154461Y610078D02*
X1151922Y612617D01*
X1146843D01*
X1144304Y610078D01*
Y599922D01*
X1146843Y597383D01*
X1151922D01*
X1154461Y599922D01*
X1169696Y597383D02*
X1159539D01*
X1169696Y607539D01*
Y610078D01*
X1167157Y612617D01*
X1162078D01*
X1159539Y610078D01*
X1002147Y891348D02*
X999608Y893887D01*
X994530D01*
X991991Y891348D01*
Y881191D01*
X994530Y878652D01*
X999608D01*
X1002147Y881191D01*
X1007226Y876113D02*
X1017383D01*
X1032618Y891348D02*
X1030078Y893887D01*
X1025000D01*
X1022461Y891348D01*
Y888809D01*
X1025000Y886270D01*
X1030078D01*
X1032618Y883730D01*
Y881191D01*
X1030078Y878652D01*
X1025000D01*
X1022461Y881191D01*
X1040235Y888809D02*
X1045313D01*
X1047853Y886270D01*
Y878652D01*
X1040235D01*
X1037696Y881191D01*
X1040235Y883730D01*
X1047853D01*
X1055470Y878652D02*
Y891348D01*
Y886270D01*
X1052931D01*
X1058009D01*
X1055470D01*
Y891348D01*
X1058009Y893887D01*
X931834Y798652D02*
Y813887D01*
X939452D01*
X941991Y811348D01*
Y806270D01*
X939452Y803730D01*
X931834D01*
X936912D02*
X941991Y798652D01*
X947069Y796113D02*
X957226D01*
X962304Y798652D02*
Y813887D01*
X969922D01*
X972461Y811348D01*
Y806270D01*
X969922Y803730D01*
X962304D01*
X977539Y798652D02*
Y813887D01*
X985157D01*
X987696Y811348D01*
Y806270D01*
X985157Y803730D01*
X977539D01*
X982617D02*
X987696Y798652D01*
X1000392Y813887D02*
X995313D01*
X992774Y811348D01*
Y801191D01*
X995313Y798652D01*
X1000392D01*
X1002931Y801191D01*
Y811348D01*
X1000392Y813887D01*
X1018166Y811348D02*
X1015627Y813887D01*
X1010548D01*
X1008009Y811348D01*
Y801191D01*
X1010548Y798652D01*
X1015627D01*
X1018166Y801191D01*
Y806270D01*
X1013088D01*
X929452Y933887D02*
Y921191D01*
X931991Y918652D01*
X937069D01*
X939608Y921191D01*
Y933887D01*
X944687Y916113D02*
X954843D01*
X959922Y933887D02*
Y918652D01*
X967539D01*
X970078Y921191D01*
Y923730D01*
X967539Y926270D01*
X959922D01*
X967539D01*
X970078Y928809D01*
Y931348D01*
X967539Y933887D01*
X959922D01*
X975157Y918652D02*
Y928809D01*
X980235Y933887D01*
X985313Y928809D01*
Y918652D01*
Y926270D01*
X975157D01*
X1000548Y931348D02*
X998009Y933887D01*
X992931D01*
X990392Y931348D01*
Y921191D01*
X992931Y918652D01*
X998009D01*
X1000548Y921191D01*
X967226Y852617D02*
Y837383D01*
X974843D01*
X977383Y839922D01*
Y850078D01*
X974843Y852617D01*
X967226D01*
X992618Y850078D02*
X990078Y852617D01*
X985000D01*
X982461Y850078D01*
Y847539D01*
X985000Y845000D01*
X990078D01*
X992618Y842461D01*
Y839922D01*
X990078Y837383D01*
X985000D01*
X982461Y839922D01*
X997696Y837383D02*
X1002774D01*
X1000235D01*
Y852617D01*
X997696Y850078D01*
X1014687Y837383D02*
Y852617D01*
X1022304D01*
X1024843Y850078D01*
Y845000D01*
X1022304Y842461D01*
X1014687D01*
X1019765D02*
X1024843Y837383D01*
X1029922Y852617D02*
Y837383D01*
X1037539D01*
X1040078Y839922D01*
Y850078D01*
X1037539Y852617D01*
X1029922D01*
X1045157D02*
Y837383D01*
X1052774D01*
X1055313Y839922D01*
Y850078D01*
X1052774Y852617D01*
X1045157D01*
X1004737Y724900D02*
X1002197Y727439D01*
X997119D01*
X994580Y724900D01*
Y714743D01*
X997119Y712204D01*
X1002197D01*
X1004737Y714743D01*
X1009815Y727439D02*
Y712204D01*
X1017433D01*
X1019972Y714743D01*
Y717282D01*
X1017433Y719821D01*
X1009815D01*
X1017433D01*
X1019972Y722361D01*
Y724900D01*
X1017433Y727439D01*
X1009815D01*
X1025050Y722361D02*
Y714743D01*
X1027589Y712204D01*
X1035207D01*
Y722361D01*
X1040285Y712204D02*
X1047903D01*
X1050442Y714743D01*
X1047903Y717282D01*
X1042824D01*
X1040285Y719821D01*
X1042824Y722361D01*
X1050442D01*
X1144691Y824722D02*
X1142151Y827261D01*
X1137073D01*
X1134534Y824722D01*
Y814565D01*
X1137073Y812026D01*
X1142151D01*
X1144691Y814565D01*
X1159926Y827261D02*
X1149769D01*
Y819643D01*
X1154847Y822183D01*
X1157387D01*
X1159926Y819643D01*
Y814565D01*
X1157387Y812026D01*
X1152308D01*
X1149769Y814565D01*
X1268135Y702294D02*
X1265595Y704833D01*
X1260517D01*
X1257978Y702294D01*
Y692137D01*
X1260517Y689598D01*
X1265595D01*
X1268135Y692137D01*
X1280831Y689598D02*
Y704833D01*
X1273213Y697215D01*
X1283370D01*
X1093129Y799322D02*
X1090590Y801861D01*
X1085511D01*
X1082972Y799322D01*
Y789165D01*
X1085511Y786626D01*
X1090590D01*
X1093129Y789165D01*
X1098207Y786626D02*
X1103285D01*
X1100746D01*
Y801861D01*
X1098207Y799322D01*
X1023787Y663432D02*
X1021247Y665971D01*
X1016169D01*
X1013630Y663432D01*
Y660893D01*
X1016169Y658354D01*
X1021247D01*
X1023787Y655814D01*
Y653275D01*
X1021247Y650736D01*
X1016169D01*
X1013630Y653275D01*
X1028865Y665971D02*
Y650736D01*
X1033943Y655814D01*
X1039022Y650736D01*
Y665971D01*
X1044100Y650736D02*
X1049178D01*
X1046639D01*
Y665971D01*
X1044100Y663432D01*
X1074336Y978137D02*
X1079414D01*
X1076875D01*
Y962902D01*
X1074336D01*
X1079414D01*
X1097189Y975598D02*
X1094649Y978137D01*
X1089571D01*
X1087032Y975598D01*
Y965441D01*
X1089571Y962902D01*
X1094649D01*
X1097189Y965441D01*
X1102267Y962902D02*
X1107345D01*
X1104806D01*
Y978137D01*
X1102267Y975598D01*
X1283632Y781795D02*
Y769099D01*
X1286171Y766560D01*
X1291250D01*
X1293789Y769099D01*
Y781795D01*
X1309024Y766560D02*
X1298867D01*
X1309024Y776717D01*
Y779256D01*
X1306485Y781795D01*
X1301406D01*
X1298867Y779256D01*
X932434Y579115D02*
Y566419D01*
X934973Y563880D01*
X940051D01*
X942591Y566419D01*
Y579115D01*
X947669D02*
Y563880D01*
X957826D01*
X973061Y579115D02*
X962904D01*
Y571497D01*
X967982Y574037D01*
X970522D01*
X973061Y571497D01*
Y566419D01*
X970522Y563880D01*
X965443D01*
X962904Y566419D01*
X1137158Y555493D02*
Y542797D01*
X1139697Y540258D01*
X1144775D01*
X1147315Y542797D01*
Y555493D01*
X1152393D02*
Y540258D01*
X1162550D01*
X1175246D02*
Y555493D01*
X1167628Y547876D01*
X1177785D01*
X1286256Y601213D02*
Y588517D01*
X1288795Y585978D01*
X1293873D01*
X1296413Y588517D01*
Y601213D01*
X1301491D02*
Y585978D01*
X1311648D01*
X1316726D02*
X1321805D01*
X1319265D01*
Y601213D01*
X1316726Y598674D01*
X1264412Y655574D02*
Y670809D01*
X1272029D01*
X1274569Y668270D01*
Y663192D01*
X1272029Y660652D01*
X1264412D01*
X1269490D02*
X1274569Y655574D01*
X1279647Y653035D02*
X1289804D01*
X1294882Y670809D02*
Y655574D01*
X1305039D01*
X1320274Y670809D02*
X1310117D01*
Y655574D01*
X1320274D01*
X1310117Y663192D02*
X1315196D01*
X1325352Y670809D02*
Y655574D01*
X1332970D01*
X1335509Y658113D01*
Y668270D01*
X1332970Y670809D01*
X1325352D01*
X1351785Y601976D02*
X1349245Y604515D01*
X1344167D01*
X1341628Y601976D01*
Y591819D01*
X1344167Y589280D01*
X1349245D01*
X1351785Y591819D01*
X1356863Y586741D02*
X1367020D01*
X1372098Y604515D02*
Y589280D01*
X1382255D01*
X1397490Y604515D02*
X1387333D01*
Y589280D01*
X1397490D01*
X1387333Y596898D02*
X1392412D01*
X1402568Y604515D02*
Y589280D01*
X1410186D01*
X1412725Y591819D01*
Y601976D01*
X1410186Y604515D01*
X1402568D01*
X797560Y704083D02*
Y691387D01*
X800099Y688848D01*
X805178D01*
X807717Y691387D01*
Y704083D01*
X812795D02*
Y688848D01*
X822952D01*
X838187Y704083D02*
X833109Y701544D01*
X828030Y696466D01*
Y691387D01*
X830569Y688848D01*
X835648D01*
X838187Y691387D01*
Y693926D01*
X835648Y696466D01*
X828030D01*
X1357630Y1029203D02*
Y1016507D01*
X1360169Y1013968D01*
X1365247D01*
X1367787Y1016507D01*
Y1029203D01*
X1372865D02*
Y1013968D01*
X1383022D01*
X1388100Y1029203D02*
X1398257D01*
Y1026664D01*
X1388100Y1016507D01*
Y1013968D01*
X1198118Y1117595D02*
Y1104899D01*
X1200657Y1102360D01*
X1205735D01*
X1208275Y1104899D01*
Y1117595D01*
X1213353D02*
Y1102360D01*
X1223510D01*
X1228588Y1115056D02*
X1231127Y1117595D01*
X1236206D01*
X1238745Y1115056D01*
Y1112517D01*
X1236206Y1109977D01*
X1238745Y1107438D01*
Y1104899D01*
X1236206Y1102360D01*
X1231127D01*
X1228588Y1104899D01*
Y1107438D01*
X1231127Y1109977D01*
X1228588Y1112517D01*
Y1115056D01*
X1231127Y1109977D02*
X1236206D01*
X992632Y1144011D02*
Y1131315D01*
X995171Y1128776D01*
X1000249D01*
X1002789Y1131315D01*
Y1144011D01*
X1007867D02*
Y1128776D01*
X1018024D01*
X1023102Y1131315D02*
X1025641Y1128776D01*
X1030720D01*
X1033259Y1131315D01*
Y1141472D01*
X1030720Y1144011D01*
X1025641D01*
X1023102Y1141472D01*
Y1138933D01*
X1025641Y1136394D01*
X1033259D01*
X817626Y1049015D02*
Y1036319D01*
X820165Y1033780D01*
X825244D01*
X827783Y1036319D01*
Y1049015D01*
X832861D02*
Y1033780D01*
X843018D01*
X848096D02*
X853175D01*
X850635D01*
Y1049015D01*
X848096Y1046476D01*
X860792D02*
X863331Y1049015D01*
X868410D01*
X870949Y1046476D01*
Y1036319D01*
X868410Y1033780D01*
X863331D01*
X860792Y1036319D01*
Y1046476D01*
M02*
